<svg width="19" height="21" viewBox="0 0 19 21" fill="none" xmlns="http://www.w3.org/2000/svg">
<path d="M18 13C17.9978 12.3997 17.8155 11.8139 17.4768 11.3183C17.1381 10.8227 16.6585 10.4401 16.1 10.22L17.97 3.22001C18.0091 3.07093 18.0131 2.91484 17.9819 2.76392C17.9507 2.61301 17.885 2.47135 17.79 2.35001C17.6929 2.23632 17.5715 2.14585 17.4348 2.08528C17.298 2.02471 17.1495 1.99557 17 2.00001H3.3L2.97 0.74001C2.91263 0.52692 2.78638 0.338794 2.61093 0.204945C2.43547 0.0710953 2.22068 -0.000958872 2 9.63738e-06H0V2.00001H1.23L3.71 11.26C3.7686 11.4782 3.89934 11.6701 4.08092 11.8044C4.26251 11.9388 4.48424 12.0077 4.71 12H15C15.2652 12 15.5196 12.1054 15.7071 12.2929C15.8946 12.4804 16 12.7348 16 13C16 13.2652 15.8946 13.5196 15.7071 13.7071C15.5196 13.8947 15.2652 14 15 14H2C1.73478 14 1.48043 14.1054 1.29289 14.2929C1.10536 14.4804 1 14.7348 1 15C1 15.2652 1.10536 15.5196 1.29289 15.7071C1.48043 15.8947 1.73478 16 2 16H3.18C3.01554 16.4531 2.96269 16.9392 3.02593 17.4171C3.08917 17.895 3.26665 18.3506 3.54332 18.7454C3.81999 19.1401 4.18772 19.4624 4.61535 19.6849C5.04299 19.9074 5.51795 20.0235 6 20.0235C6.48205 20.0235 6.95701 19.9074 7.38465 19.6849C7.81228 19.4624 8.18001 19.1401 8.45668 18.7454C8.73335 18.3506 8.91083 17.895 8.97407 17.4171C9.03731 16.9392 8.98446 16.4531 8.82 16H11.18C11.0303 16.4126 10.9729 16.853 11.012 17.2902C11.051 17.7274 11.1856 18.1507 11.406 18.5302C11.6265 18.9098 11.9276 19.2363 12.288 19.4868C12.6485 19.7373 13.0595 19.9056 13.4921 19.98C13.9247 20.0543 14.3683 20.0328 14.7917 19.917C15.215 19.8012 15.6078 19.5939 15.9424 19.3097C16.2769 19.0255 16.545 18.6714 16.7277 18.2723C16.9105 17.8732 17.0034 17.4389 17 17C16.9981 16.4834 16.8602 15.9764 16.6 15.53C17.0276 15.2604 17.3802 14.8871 17.6249 14.4448C17.8697 14.0025 17.9987 13.5055 18 13ZM14.09 10H5.5L3.84 4.00001H15.7L14.09 10ZM6 18C5.80222 18 5.60888 17.9414 5.44443 17.8315C5.27998 17.7216 5.15181 17.5654 5.07612 17.3827C5.00043 17.2 4.98063 16.9989 5.01921 16.8049C5.0578 16.6109 5.15304 16.4328 5.29289 16.2929C5.43275 16.153 5.61093 16.0578 5.80491 16.0192C5.99889 15.9806 6.19996 16.0004 6.38268 16.0761C6.56541 16.1518 6.72159 16.28 6.83147 16.4444C6.94135 16.6089 7 16.8022 7 17C7 17.2652 6.89464 17.5196 6.70711 17.7071C6.51957 17.8947 6.26522 18 6 18ZM14 18C13.8022 18 13.6089 17.9414 13.4444 17.8315C13.28 17.7216 13.1518 17.5654 13.0761 17.3827C13.0004 17.2 12.9806 16.9989 13.0192 16.8049C13.0578 16.6109 13.153 16.4328 13.2929 16.2929C13.4327 16.153 13.6109 16.0578 13.8049 16.0192C13.9989 15.9806 14.2 16.0004 14.3827 16.0761C14.5654 16.1518 14.7216 16.28 14.8315 16.4444C14.9414 16.6089 15 16.8022 15 17C15 17.2652 14.8946 17.5196 14.7071 17.7071C14.5196 17.8947 14.2652 18 14 18Z" fill="black"/>
</svg>
