<svg width="24" height="24" viewBox="0 0 24 24" fill="none" xmlns="http://www.w3.org/2000/svg">
<path d="M15.7071 6.70711C16.0976 6.31658 16.0976 5.68342 15.7071 5.29289C15.3166 4.90237 14.6834 4.90237 14.2929 5.29289L15.7071 6.70711ZM9 12L8.29289 11.2929L7.58579 12L8.29289 12.7071L9 12ZM14.2929 18.7071C14.6834 19.0976 15.3166 19.0976 15.7071 18.7071C16.0976 18.3166 16.0976 17.6834 15.7071 17.2929L14.2929 18.7071ZM14.2929 5.29289L8.29289 11.2929L9.70711 12.7071L15.7071 6.70711L14.2929 5.29289ZM8.29289 12.7071L14.2929 18.7071L15.7071 17.2929L9.70711 11.2929L8.29289 12.7071Z" fill="black"/>
</svg>
