<svg width="28" height="24" viewBox="0 0 28 24" fill="none" xmlns="http://www.w3.org/2000/svg">
<path d="M14 23C14 23 1.5 16 1.5 7.5C1.5 5.99737 2.02062 4.54114 2.97328 3.37908C3.92593 2.21703 5.25178 1.42093 6.72525 1.12624C8.1987 0.83154 9.7288 1.05646 11.0551 1.76272C12.3814 2.46898 13.4221 3.61296 14 5.00001C14.5779 3.61296 15.6186 2.46898 16.9449 1.76272C18.2712 1.05646 19.8013 0.83154 21.2748 1.12624C22.7482 1.42093 24.0741 2.21703 25.0267 3.37908C25.9794 4.54114 26.5 5.99737 26.5 7.5C26.5 16 14 23 14 23Z" stroke="black" stroke-width="2" stroke-linecap="round" stroke-linejoin="round"/>
</svg>
