<svg width="25" height="25" viewBox="0 0 25 25" fill="none" xmlns="http://www.w3.org/2000/svg">
<mask id="mask0_258_2121" style="mask-type:alpha" maskUnits="userSpaceOnUse" x="0" y="0" width="25" height="25">
<rect x="0.656006" y="0.658813" width="24" height="24" fill="#D9D9D9"/>
</mask>
<g mask="url(#mask0_258_2121)">
<path d="M5.65601 21.6588C5.10601 21.6588 4.63501 21.4631 4.24301 21.0718C3.85167 20.6798 3.65601 20.2088 3.65601 19.6588V5.65881C3.65601 5.10881 3.85167 4.63781 4.24301 4.24581C4.63501 3.85448 5.10601 3.65881 5.65601 3.65881H12.656V5.65881H5.65601V19.6588H12.656V21.6588H5.65601ZM16.656 17.6588L15.281 16.2088L17.831 13.6588H9.65601V11.6588H17.831L15.281 9.10881L16.656 7.65881L21.656 12.6588L16.656 17.6588Z" fill="#1C1B1F"/>
</g>
</svg>
