<svg width="24" height="24" viewBox="0 0 24 24" fill="none" xmlns="http://www.w3.org/2000/svg">
<path d="M5.82307 9.476C5.27078 9.476 4.82307 9.92372 4.82307 10.476C4.82307 11.0283 5.27078 11.476 5.82307 11.476V9.476ZM14.4706 11.476C15.0229 11.476 15.4706 11.0283 15.4706 10.476C15.4706 9.92372 15.0229 9.476 14.4706 9.476V11.476ZM6.90007 12.638C6.34778 12.638 5.90007 13.0857 5.90007 13.638C5.90007 14.1903 6.34778 14.638 6.90007 14.638V12.638ZM13.3891 14.638C13.9414 14.638 14.3891 14.1903 14.3891 13.638C14.3891 13.0857 13.9414 12.638 13.3891 12.638V14.638ZM5.11363 4.2817C4.56891 4.37279 4.20117 4.88822 4.29226 5.43294C4.38336 5.97766 4.89879 6.3454 5.44351 6.2543L5.11363 4.2817ZM6.02857 5.2065L6.02651 6.2065H6.02857V5.2065ZM14.2786 5.2065L14.2861 4.2065H14.2786V5.2065ZM18.8026 9.798L17.8026 9.79073V9.798H18.8026ZM18.8026 15.372L17.8026 15.372L17.8026 15.3731L18.8026 15.372ZM17.7459 16.0208C17.6495 16.5646 18.0121 17.0837 18.5559 17.1801C19.0997 17.2766 19.6187 16.914 19.7152 16.3702L17.7459 16.0208ZM5.45238 6.25278C5.99626 6.15678 6.35934 5.63807 6.26335 5.09419C6.16735 4.55031 5.64863 4.18723 5.10475 4.28322L5.45238 6.25278ZM1.50007 9.7965L2.50008 9.7965L2.50005 9.79112L1.50007 9.7965ZM1.50007 22.5H0.500067C0.500067 22.855 0.688294 23.1834 0.994623 23.3629C1.30095 23.5423 1.67945 23.5459 1.98912 23.3723L1.50007 22.5ZM6.02407 19.9635V18.9635C5.8528 18.9635 5.6844 19.0075 5.53501 19.0912L6.02407 19.9635ZM14.2741 19.9635L14.2741 20.9635L14.2806 20.9635L14.2741 19.9635ZM19.7067 16.3719C19.8016 15.8279 19.4376 15.3098 18.8935 15.2149C18.3494 15.1199 17.8314 15.484 17.7365 16.0281L19.7067 16.3719ZM4.29329 5.09706C4.19888 5.64122 4.56347 6.15887 5.10763 6.25328C5.65178 6.34769 6.16944 5.9831 6.26385 5.43894L4.29329 5.09706ZM9.73057 1.5L9.73057 0.499984L9.72482 0.500016L9.73057 1.5ZM17.9806 1.5L17.9891 0.5H17.9806V1.5ZM22.5001 6.0915L21.5001 6.08422V6.0915H22.5001ZM22.5001 11.6655H21.5L21.5001 11.6722L22.5001 11.6655ZM18.5478 15.2152C18.0039 15.3112 17.6408 15.8299 17.7368 16.3738C17.8328 16.9177 18.3515 17.2808 18.8954 17.1848L18.5478 15.2152ZM5.82307 11.476H14.4706V9.476H5.82307V11.476ZM6.90007 14.638H13.3891V12.638H6.90007V14.638ZM5.44351 6.2543C5.63616 6.22209 5.83118 6.20609 6.02651 6.2065L6.03063 4.2065C5.7234 4.20587 5.41665 4.23102 5.11363 4.2817L5.44351 6.2543ZM6.02857 6.2065H14.2786V4.2065H6.02857V6.2065ZM14.271 6.20647C16.2359 6.22129 17.8169 7.82586 17.8026 9.79073L19.8025 9.80527C19.8248 6.73607 17.3553 4.22968 14.2861 4.20653L14.271 6.20647ZM17.8026 9.798V15.372H19.8026V9.798H17.8026ZM17.8026 15.3731C17.8028 15.5903 17.7839 15.807 17.7459 16.0208L19.7152 16.3702C19.7737 16.0403 19.8029 15.7059 19.8026 15.3709L17.8026 15.3731ZM5.10475 4.28322C2.43033 4.75526 0.485465 7.08616 0.500082 9.80188L2.50005 9.79112C2.49068 8.04991 3.73765 6.55543 5.45238 6.25278L5.10475 4.28322ZM0.500067 9.7965V22.5H2.50007V9.7965H0.500067ZM1.98912 23.3723L6.51312 20.8358L5.53501 19.0912L1.01101 21.6277L1.98912 23.3723ZM6.02407 20.9635H14.2741V18.9635H6.02407V20.9635ZM14.2806 20.9635C16.9615 20.9459 19.2458 19.0129 19.7067 16.3719L17.7365 16.0281C17.4418 17.7165 15.9814 18.9523 14.2675 18.9635L14.2806 20.9635ZM6.26385 5.43894C6.55724 3.74784 8.01998 2.50984 9.73631 2.49998L9.72482 0.500016C7.04018 0.515436 4.75221 2.45189 4.29329 5.09706L6.26385 5.43894ZM9.73057 2.5H17.9806V0.5H9.73057V2.5ZM17.972 2.49996C19.9355 2.51671 21.5144 4.12071 21.5001 6.08422L23.5 6.09878C23.5224 3.0317 21.0561 0.526196 17.9891 0.500036L17.972 2.49996ZM21.5001 6.0915V11.6655H23.5001V6.0915H21.5001ZM21.5001 11.6722C21.5118 13.4152 20.2642 14.9123 18.5478 15.2152L18.8954 17.1848C21.5725 16.7123 23.5182 14.3773 23.5 11.6588L21.5001 11.6722Z" fill="black"/>
</svg>
