<svg width="24" height="24" viewBox="0 0 24 24" fill="none" xmlns="http://www.w3.org/2000/svg">
<path fill-rule="evenodd" clip-rule="evenodd" d="M10.0005 22C10.0005 23.1046 10.8959 24 12.0005 24C13.1051 24 14.0005 23.1046 14.0005 22L14.0005 13.9994L22 13.9994C23.1046 13.9994 24 13.104 24 11.9994C24 10.8949 23.1046 9.99945 22 9.99945L14.0005 9.99945V2C14.0005 0.895432 13.1051 0 12.0005 0C10.8959 0 10.0005 0.89543 10.0005 2V9.99945H2C0.895431 9.99945 0 10.8949 0 11.9994C0 13.104 0.89543 13.9994 2 13.9994H10.0005L10.0005 22Z" fill="black"/>
</svg>
