<svg width="20" height="24" viewBox="0 0 20 24" fill="none" xmlns="http://www.w3.org/2000/svg">
<path d="M13.6111 3.84624C14.459 2.81085 15.0344 1.42064 14.8826 0C13.6414 0.0602542 12.1268 0.799444 11.2499 1.83564C10.4625 2.72298 9.76565 4.17141 9.94733 5.53249C11.3406 5.65048 12.7326 4.85257 13.6111 3.84624Z" fill="black"/>
<path d="M14.8667 5.79823C12.8433 5.68056 11.1229 6.91938 10.1567 6.91938C9.18984 6.91938 7.71015 5.85752 6.10975 5.88614C4.02672 5.91601 2.09391 7.06585 1.03686 8.89464C-1.13731 12.5531 0.463095 17.9799 2.57736 20.9595C3.60409 22.4337 4.84148 24.0568 6.47194 23.9985C8.01244 23.9394 8.61625 23.0246 10.4888 23.0246C12.36 23.0246 12.9039 23.9985 14.5346 23.969C16.2257 23.9394 17.2829 22.4941 18.3096 21.0186C19.4875 19.3381 19.9697 17.7156 20 17.6265C19.9697 17.597 16.7391 16.387 16.7091 12.759C16.6786 9.72114 19.2455 8.27618 19.3663 8.18657C17.9168 6.09353 15.6519 5.85752 14.8667 5.79823Z" fill="black"/>
</svg>
