<svg width="31" height="30" viewBox="0 0 31 30" fill="none" xmlns="http://www.w3.org/2000/svg">
<path d="M26.9535 16.5035V11.6428C26.9535 9.98593 25.6103 8.64278 23.9535 8.64278H4C2.34315 8.64278 1 9.98593 1 11.6428V25.652C1 27.3088 2.34315 28.652 4 28.652H23.9535C25.6103 28.652 26.9535 27.3088 26.9535 25.652V22.2204M26.9535 16.5035H24.0445C22.4658 16.5035 21.186 17.7833 21.186 19.362V19.362C21.186 20.9407 22.4658 22.2204 24.0445 22.2204H26.9788C28.5574 22.2204 29.8372 20.9407 29.8372 19.362V19.362C29.8372 17.7833 28.5322 16.5035 26.9535 16.5035V16.5035Z" stroke="black" stroke-width="2"/>
<path d="M24.0693 8.64279L22.132 3.84188C21.6489 2.64478 20.1752 2.21208 19.1216 2.95802L11.0926 8.64279" stroke="black" stroke-width="2"/>
<path d="M4.60454 8.64278L13.2151 2.3837C14.3074 1.58972 15.8563 2.08406 16.2867 3.36397L16.8604 5.06972" stroke="black" stroke-width="2"/>
</svg>
