<svg width="22" height="22" viewBox="0 0 22 22" fill="none" xmlns="http://www.w3.org/2000/svg">
<path d="M14.7098 7.29002C14.6169 7.19629 14.5063 7.1219 14.3844 7.07113C14.2626 7.02036 14.1318 6.99422 13.9998 6.99422C13.8678 6.99422 13.7371 7.02036 13.6153 7.07113C13.4934 7.1219 13.3828 7.19629 13.2898 7.29002L10.9998 9.59002L8.70984 7.29002C8.52153 7.10171 8.26614 6.99593 7.99984 6.99593C7.73353 6.99593 7.47814 7.10171 7.28983 7.29002C7.10153 7.47832 6.99574 7.73372 6.99574 8.00002C6.99574 8.26632 7.10153 8.52171 7.28983 8.71002L9.58984 11L7.28983 13.29C7.19611 13.383 7.12171 13.4936 7.07094 13.6154C7.02018 13.7373 6.99404 13.868 6.99404 14C6.99404 14.132 7.02018 14.2627 7.07094 14.3846C7.12171 14.5065 7.19611 14.6171 7.28983 14.71C7.3828 14.8037 7.4934 14.8781 7.61526 14.9289C7.73712 14.9797 7.86782 15.0058 7.99984 15.0058C8.13185 15.0058 8.26255 14.9797 8.38441 14.9289C8.50627 14.8781 8.61687 14.8037 8.70984 14.71L10.9998 12.41L13.2898 14.71C13.3828 14.8037 13.4934 14.8781 13.6153 14.9289C13.7371 14.9797 13.8678 15.0058 13.9998 15.0058C14.1318 15.0058 14.2626 14.9797 14.3844 14.9289C14.5063 14.8781 14.6169 14.8037 14.7098 14.71C14.8036 14.6171 14.878 14.5065 14.9287 14.3846C14.9795 14.2627 15.0056 14.132 15.0056 14C15.0056 13.868 14.9795 13.7373 14.9287 13.6154C14.878 13.4936 14.8036 13.383 14.7098 13.29L12.4098 11L14.7098 8.71002C14.8036 8.61706 14.878 8.50645 14.9287 8.38459C14.9795 8.26274 15.0056 8.13203 15.0056 8.00002C15.0056 7.86801 14.9795 7.7373 14.9287 7.61544C14.878 7.49358 14.8036 7.38298 14.7098 7.29002V7.29002ZM18.0698 3.93002C17.1474 2.97492 16.0439 2.21309 14.8239 1.689C13.6038 1.16491 12.2916 0.889052 10.9638 0.877514C9.63605 0.865976 8.31926 1.11899 7.09029 1.6218C5.86133 2.12461 4.74481 2.86714 3.80589 3.80607C2.86696 4.745 2.12443 5.86151 1.62162 7.09048C1.11881 8.31944 0.865793 9.63624 0.877331 10.964C0.888869 12.2918 1.16473 13.604 1.68882 14.8241C2.21291 16.0441 2.97473 17.1476 3.92984 18.07C4.8523 19.0251 5.95575 19.7869 7.17579 20.311C8.39583 20.8351 9.70803 21.111 11.0358 21.1225C12.3636 21.1341 13.6804 20.881 14.9094 20.3782C16.1383 19.8754 17.2549 19.1329 18.1938 18.194C19.1327 17.255 19.8752 16.1385 20.3781 14.9096C20.8809 13.6806 21.1339 12.3638 21.1223 11.036C21.1108 9.70821 20.8349 8.39601 20.3109 7.17597C19.7868 5.95593 19.0249 4.85249 18.0698 3.93002V3.93002ZM16.6598 16.66C15.3519 17.9694 13.6304 18.7848 11.7886 18.9673C9.94688 19.1498 8.09884 18.6881 6.55936 17.6608C5.01987 16.6335 3.88419 15.1042 3.34581 13.3335C2.80742 11.5628 2.89964 9.66016 3.60675 7.9498C4.31386 6.23945 5.59211 4.82717 7.22373 3.95358C8.85534 3.07999 10.7394 2.79915 12.5548 3.15889C14.3703 3.51863 16.0049 4.49671 17.1801 5.92648C18.3553 7.35625 18.9984 9.14926 18.9998 11C19.0034 12.0513 18.7984 13.0929 18.3968 14.0644C17.9951 15.0359 17.4047 15.9182 16.6598 16.66V16.66Z" fill="black"/>
</svg>
