<svg width="16" height="25" viewBox="0 0 16 25" fill="none" xmlns="http://www.w3.org/2000/svg">
<path d="M15.4811 9.29142C15.3807 9.14278 15.2452 9.0211 15.0867 8.93708C14.9282 8.85305 14.7515 8.80924 14.5721 8.80951H11.2864V6.61904H13.6959C13.9864 6.61904 14.2649 6.50365 14.4703 6.29825C14.6757 6.09285 14.7911 5.81427 14.7911 5.5238V1.14285C14.7911 0.85237 14.6757 0.573792 14.4703 0.368395C14.2649 0.162998 13.9864 0.0476074 13.6959 0.0476074H10.1911C8.50637 0.0476074 6.89062 0.716874 5.69932 1.90818C4.50801 3.09948 3.83875 4.71523 3.83875 6.39999V8.80951H1.42922C1.13875 8.80951 0.860169 8.9249 0.654772 9.1303C0.449375 9.3357 0.333984 9.61428 0.333984 9.90475V14.2857C0.333984 14.5762 0.449375 14.8548 0.654772 15.0602C0.860169 15.2656 1.13875 15.3809 1.42922 15.3809H3.83875V23.0476C3.83875 23.3381 3.95414 23.6167 4.15953 23.8221C4.36493 24.0275 4.64351 24.1428 4.93398 24.1428H10.1911C10.4816 24.1428 10.7602 24.0275 10.9656 23.8221C11.171 23.6167 11.2864 23.3381 11.2864 23.0476V15.3809H12.8197C13.0391 15.3812 13.2534 15.3155 13.435 15.1925C13.6166 15.0694 13.7571 14.8947 13.8383 14.6909L15.5907 10.31C15.6568 10.1441 15.6814 9.96464 15.6623 9.78711C15.6432 9.60958 15.581 9.43941 15.4811 9.29142V9.29142ZM12.0749 13.1905H10.1911C9.90065 13.1905 9.62207 13.3059 9.41668 13.5113C9.21128 13.7167 9.09589 13.9952 9.09589 14.2857V21.9524H6.02922V14.2857C6.02922 13.9952 5.91383 13.7167 5.70843 13.5113C5.50304 13.3059 5.22446 13.1905 4.93398 13.1905H2.52446V11H4.93398C5.22446 11 5.50304 10.8846 5.70843 10.6792C5.91383 10.4738 6.02922 10.1952 6.02922 9.90475V6.39999C6.03211 5.29707 6.47153 4.24015 7.25141 3.46027C8.03129 2.68039 9.08821 2.24097 10.1911 2.23808H12.6007V4.42856H11.7245C11.3536 4.37454 10.9757 4.39721 10.6139 4.49517C10.2522 4.59314 9.91448 4.76431 9.6216 4.99808C9.44387 5.18416 9.30566 5.40431 9.2153 5.64525C9.12495 5.88618 9.08433 6.14293 9.09589 6.39999V9.90475C9.09589 10.1952 9.21128 10.4738 9.41668 10.6792C9.62207 10.8846 9.90065 11 10.1911 11H12.9511L12.0749 13.1905Z" fill="black"/>
</svg>
