<svg width="21" height="21" viewBox="0 0 21 21" fill="none" xmlns="http://www.w3.org/2000/svg">
<path d="M21.0001 10.7397C21.0001 9.97222 20.93 9.23785 20.7998 8.53168H10.7236V12.5774L16.5267 12.5787C16.2913 13.9248 15.5339 15.0723 14.3732 15.8374V18.4622H17.8275C19.8445 16.6343 21.0001 13.9322 21.0001 10.7397Z" fill="#4285F4"/>
<path d="M14.3734 15.8374C13.4119 16.4724 12.1736 16.8439 10.7251 16.8439C7.9268 16.8439 5.55299 14.9976 4.70287 12.5088H1.13965V15.2158C2.90499 18.6461 6.53332 21 10.7251 21C13.6222 21 16.0561 20.067 17.8277 18.461L14.3734 15.8374Z" fill="#118252"/>
<path d="M4.36827 10.5006C4.36827 9.80181 4.48721 9.1263 4.70381 8.49123V5.78424H1.14058C0.410658 7.20271 0 8.80386 0 10.5006C0 12.1974 0.41191 13.7985 1.14058 15.217L4.70381 12.51C4.48721 11.875 4.36827 11.1994 4.36827 10.5006Z" fill="#FFD345"/>
<path d="M10.7251 4.15611C12.3063 4.15611 13.7224 4.68942 14.8404 5.73151L17.9016 2.73641C16.0423 1.04087 13.6185 0 10.7251 0C6.53457 0 2.90499 2.3539 1.13965 5.78423L4.70287 8.49122C5.55299 6.00246 7.92681 4.15611 10.7251 4.15611Z" fill="#E94235"/>
</svg>
