<svg width="190" height="32" viewBox="0 0 190 32" fill="none" xmlns="http://www.w3.org/2000/svg">
<path d="M20.7969 21.5259C22.627 20.6257 24.0828 19.439 25.081 17.8431C26.0793 16.2881 26.5784 14.4467 26.5784 12.3598C26.5784 10.191 26.0377 8.26776 24.9978 6.67186C23.9164 5.03505 22.419 3.80744 20.4641 2.94812C18.5092 2.08879 16.18 1.63867 13.518 1.63867H0.0415963V8.10407H8.36034V8.06315H12.9773C14.6826 8.06315 15.972 8.43143 16.8455 9.168C17.7189 9.90456 18.1349 10.9685 18.1349 12.3189C18.1349 13.6692 17.7189 14.7332 16.8455 15.4288C15.972 16.1654 14.6826 16.5336 12.9773 16.5336H8.48513H0V30.5284H8.31875V22.8354H12.8525L18.1765 30.5284H27.1191L20.7969 21.5259Z" fill="black"/>
<path d="M43.2577 1.63672V30.6083H51.5764V1.63672H43.2577Z" fill="black"/>
<path d="M87.638 1.63672V17.0637L74.6607 1.63672H67.7977V30.6083H75.9501V15.1813L88.9273 30.6083H95.7903V1.63672H87.638Z" fill="black"/>
<path d="M177.356 14.4857L189.376 1.63672H180.225L168.829 13.6673V1.63672H160.552V30.6083H168.787V23.3654L171.907 20.0918L180.309 30.6083H190L177.356 14.4857Z" fill="black"/>
<path d="M144.539 15.4687L137.8 15.4277H118.958H112.054H111.929V16.0415C111.929 16.3689 111.887 16.6553 111.887 16.9827C111.887 19.8471 112.595 22.4251 114.009 24.7166C115.423 27.0082 117.378 28.8087 119.873 30.0772C121.828 31.1002 123.95 31.714 126.32 31.9186H126.362C126.986 31.9595 127.61 32.0004 128.275 32.0004C129.357 32.0004 130.397 31.9186 131.437 31.7549C133.308 31.4685 135.055 30.8956 136.677 30.0363C139.173 28.7268 141.128 26.9673 142.542 24.6757C143.831 22.5888 144.539 20.2563 144.663 17.7193C144.663 17.4738 144.663 17.2282 144.663 16.9418C144.622 16.4507 144.622 15.9597 144.539 15.4687Z" fill="white"/>
<path d="M144.622 17.7594C144.622 17.5139 144.622 17.2684 144.622 16.9819C144.622 16.4909 144.622 15.9589 144.539 15.4679H137.759C137.468 10.5984 133.35 6.75184 128.317 6.75184C123.326 6.75184 119.208 10.5984 118.875 15.4679H111.971C112.304 6.87461 119.499 0 128.276 0C137.26 0 144.58 7.20197 144.58 16.0407C144.705 16.6136 144.664 17.1865 144.622 17.7594Z" fill="white"/>
</svg>
