<?xml version="1.0" encoding="UTF-8" standalone="no"?><svg xmlns="http://www.w3.org/2000/svg" xmlns:xlink="http://www.w3.org/1999/xlink"><symbol id="apple-footer" width="22" height="26" viewBox="0 0 22 26" fill="none" xmlns="http://www.w3.org/2000/svg"><path d="M20.3143 17.1001C19.6442 16.8135 19.0734 16.3358 18.6732 15.7267C18.273 15.1177 18.0611 14.4041 18.064 13.6753C18.0726 13.0248 18.2469 12.3871 18.5702 11.8226C18.8936 11.258 19.3554 10.7851 19.9122 10.4484C20.0381 10.3706 20.147 10.268 20.2322 10.1469C20.3174 10.0258 20.3772 9.88865 20.4078 9.74379C20.4385 9.59893 20.4395 9.44935 20.4108 9.30409C20.382 9.15883 20.3241 9.02091 20.2405 8.89867C19.74 8.17085 19.0876 7.56031 18.3282 7.10919C17.5687 6.65807 16.7205 6.37712 15.8419 6.28573C16.6596 4.98802 17.0307 3.45858 16.8987 1.93043C16.8729 1.65294 16.7406 1.39623 16.5296 1.21416C16.3186 1.03209 16.0453 0.938818 15.7671 0.953916C13.8865 1.12153 12.1432 2.00851 10.9005 3.42996C10.1128 4.34272 9.55694 5.43205 9.28012 6.60551C8.70821 6.41196 8.10944 6.30946 7.50571 6.30176C6.388 6.33343 5.29744 6.65337 4.33977 7.23054C3.38209 7.80771 2.58979 8.62253 2.03968 9.596C-0.0278009 13.1855 1.23697 18.5643 3.47663 21.8019C4.37507 23.0993 5.72326 25.047 7.75704 25.047C7.79715 25.047 7.83779 25.047 7.87844 25.0448C8.55987 25.0061 9.22699 24.8335 9.84163 24.5367C10.3326 24.2879 10.8742 24.1554 11.4246 24.1496C11.9422 24.1559 12.4512 24.2826 12.9113 24.5196C13.5836 24.8377 14.3163 25.0081 15.0601 25.0191C17.1553 24.9796 18.3929 23.172 19.2966 21.8511C20.0097 20.8018 20.5677 19.6552 20.9534 18.4466C21.0356 18.1829 21.0155 17.898 20.897 17.6485C20.7786 17.3989 20.5706 17.2032 20.3143 17.1001V17.1001ZM12.5589 4.85999C13.1341 4.21654 13.8549 3.72 14.6611 3.4118C14.4847 4.27949 14.0945 5.08941 13.5258 5.76806C13.1397 6.23121 12.6701 6.61763 12.1412 6.90719L12.138 6.90829C12.107 6.92112 12.076 6.93289 12.0449 6.94572C11.8406 7.02594 11.5882 7.12541 11.3936 7.18958C11.5815 6.32798 11.9822 5.52713 12.5589 4.85999V4.85999ZM17.4891 20.6147C16.6088 21.9004 15.9163 22.8127 15.02 22.8287C14.5867 22.8274 14.1607 22.7174 13.7809 22.5089C13.0466 22.1512 12.2413 21.9633 11.4246 21.9591C10.5795 21.9634 9.74587 22.1552 8.98385 22.5206C8.61337 22.7098 8.20918 22.8239 7.79449 22.8565H7.76187C6.87144 22.8565 5.91366 21.4735 5.2778 20.5548C3.68681 18.2552 2.21936 13.6732 3.93817 10.6891C4.29859 10.0433 4.81982 9.50173 5.45127 9.11681C6.08272 8.7319 6.80295 8.51675 7.54207 8.49225L7.57897 8.49116C8.20246 8.54415 8.81132 8.709 9.37638 8.97782C9.52024 9.03449 9.66196 9.09118 9.80261 9.14359C9.83843 9.15857 9.87533 9.17247 9.91277 9.18424C10.3025 9.341 10.7165 9.42894 11.1364 9.44415C11.7308 9.39691 12.3115 9.24064 12.8493 8.98316C13.6075 8.61519 14.4409 8.4288 15.2836 8.43875C16.185 8.47402 17.0504 8.8022 17.7485 9.37356C17.1519 9.92322 16.6769 10.5916 16.354 11.3358C16.0311 12.0799 15.8674 12.8834 15.8735 13.6946V13.6957C15.8673 14.6777 16.1103 15.6453 16.5799 16.5078C17.0494 17.3703 17.73 18.0996 18.5581 18.6275C18.2698 19.3243 17.9116 19.9901 17.4891 20.6147V20.6147Z" fill="black"></path></symbol><symbol id="android" width="22" height="22" viewBox="0 0 22 22" fill="none" xmlns="http://www.w3.org/2000/svg"><path d="M1.1343 7.71475C0.990461 7.71471 0.848023 7.74302 0.715125 7.79804C0.582227 7.85307 0.461474 7.93374 0.359764 8.03545C0.258054 8.13716 0.177381 8.25792 0.122353 8.39081C0.0673264 8.52371 0.0390237 8.66615 0.0390625 8.80999V13.1909C0.0390625 13.4814 0.154453 13.76 0.35985 13.9654C0.565247 14.1708 0.843825 14.2862 1.1343 14.2862C1.42478 14.2862 1.70335 14.1708 1.90875 13.9654C2.11415 13.76 2.22954 13.4814 2.22954 13.1909V8.80999C2.22958 8.66615 2.20128 8.52371 2.14625 8.39081C2.09122 8.25792 2.01055 8.13716 1.90884 8.03545C1.80713 7.93374 1.68637 7.85307 1.55348 7.79804C1.42058 7.74302 1.27814 7.71471 1.1343 7.71475V7.71475ZM20.8486 7.71475C20.7047 7.71471 20.5623 7.74302 20.4294 7.79804C20.2965 7.85307 20.1758 7.93374 20.0741 8.03545C19.9723 8.13716 19.8917 8.25792 19.8366 8.39081C19.7816 8.52371 19.7533 8.66615 19.7534 8.80999V13.1909C19.7534 13.4814 19.8687 13.76 20.0741 13.9654C20.2795 14.1708 20.5581 14.2862 20.8486 14.2862C21.1391 14.2862 21.4176 14.1708 21.623 13.9654C21.8284 13.76 21.9438 13.4814 21.9438 13.1909V8.80999C21.9439 8.66615 21.9156 8.52371 21.8605 8.39081C21.8055 8.25792 21.7248 8.13716 21.6231 8.03545C21.5214 7.93374 21.4007 7.85307 21.2678 7.79804C21.1349 7.74302 20.9924 7.71471 20.8486 7.71475ZM16.3206 1.69094C16.393 1.5664 16.4401 1.4288 16.4593 1.28601C16.4784 1.14322 16.4692 0.998055 16.4321 0.858835C16.3951 0.719616 16.3309 0.589078 16.2433 0.474703C16.1557 0.360328 16.0464 0.264364 15.9217 0.192312C15.7969 0.120259 15.6592 0.0735343 15.5163 0.0548148C15.3735 0.0360953 15.2283 0.0457495 15.0892 0.0832237C14.9501 0.120698 14.8198 0.185255 14.7057 0.273197C14.5915 0.361138 14.4959 0.470734 14.4242 0.595704L13.7516 1.75926C12.888 1.35362 11.9456 1.14332 10.9914 1.14332C10.0373 1.14332 9.0949 1.35362 8.23129 1.75926L7.55866 0.595704C7.48698 0.470734 7.39135 0.361138 7.27723 0.273197C7.16312 0.185255 7.03278 0.120698 6.89367 0.0832237C6.75456 0.0457495 6.60942 0.0360953 6.46658 0.0548148C6.32373 0.0735343 6.18599 0.120259 6.06123 0.192312C5.93648 0.264364 5.82717 0.360328 5.73957 0.474703C5.65197 0.589078 5.5878 0.719616 5.55074 0.858835C5.51369 0.998055 5.50447 1.14322 5.52361 1.28601C5.54276 1.4288 5.5899 1.5664 5.66232 1.69094L6.42077 3.00297C5.78796 3.61374 5.28466 4.34573 4.94091 5.15526C4.59716 5.96479 4.42 6.83526 4.42002 7.71475V16.4767C4.41998 16.6205 4.44828 16.7629 4.50331 16.8958C4.55834 17.0287 4.63901 17.1495 4.74072 17.2512C4.84243 17.3529 4.96318 17.4336 5.09608 17.4886C5.22898 17.5436 5.37141 17.5719 5.51525 17.5719H7.70573V20.8576C7.70573 21.1481 7.82112 21.4267 8.02652 21.6321C8.23192 21.8375 8.51049 21.9528 8.80097 21.9528C9.09144 21.9528 9.37002 21.8375 9.57542 21.6321C9.78082 21.4267 9.89621 21.1481 9.89621 20.8576V17.5719H12.0867V20.8576C12.0867 21.1481 12.2021 21.4267 12.4075 21.6321C12.6129 21.8375 12.8914 21.9528 13.1819 21.9528C13.4724 21.9528 13.751 21.8375 13.9564 21.6321C14.1618 21.4267 14.2772 21.1481 14.2772 20.8576V17.5719H16.4676C16.6115 17.5719 16.7539 17.5436 16.8868 17.4886C17.0197 17.4336 17.1405 17.3529 17.2422 17.2512C17.3439 17.1495 17.4246 17.0287 17.4796 16.8958C17.5346 16.7629 17.5629 16.6205 17.5629 16.4767V7.71475C17.5629 6.83526 17.3857 5.96479 17.042 5.15526C16.6982 4.34573 16.1949 3.61374 15.5621 3.00297L16.3206 1.69094ZM15.3724 15.3814H6.61049V9.90523H15.3724V15.3814ZM6.61049 7.71475C6.61049 6.55285 7.07205 5.43854 7.89364 4.61695C8.71523 3.79536 9.82954 3.3338 10.9914 3.3338C12.1533 3.3338 13.2677 3.79536 14.0892 4.61695C14.9108 5.43854 15.3724 6.55285 15.3724 7.71475H6.61049Z" fill="black"></path></symbol><symbol id="apple" width="20" height="24" viewBox="0 0 20 24" fill="none" xmlns="http://www.w3.org/2000/svg"><path d="M13.6111 3.84624C14.459 2.81085 15.0344 1.42064 14.8826 0C13.6414 0.0602542 12.1268 0.799444 11.2499 1.83564C10.4625 2.72298 9.76565 4.17141 9.94733 5.53249C11.3406 5.65048 12.7326 4.85257 13.6111 3.84624Z" fill="black"></path><path d="M14.8667 5.79823C12.8433 5.68056 11.1229 6.91938 10.1567 6.91938C9.18984 6.91938 7.71015 5.85752 6.10975 5.88614C4.02672 5.91601 2.09391 7.06585 1.03686 8.89464C-1.13731 12.5531 0.463095 17.9799 2.57736 20.9595C3.60409 22.4337 4.84148 24.0568 6.47194 23.9985C8.01244 23.9394 8.61625 23.0246 10.4888 23.0246C12.36 23.0246 12.9039 23.9985 14.5346 23.969C16.2257 23.9394 17.2829 22.4941 18.3096 21.0186C19.4875 19.3381 19.9697 17.7156 20 17.6265C19.9697 17.597 16.7391 16.387 16.7091 12.759C16.6786 9.72114 19.2455 8.27618 19.3663 8.18657C17.9168 6.09353 15.6519 5.85752 14.8667 5.79823Z" fill="black"></path></symbol><symbol id="arrow-product-slider" width="8" height="12" viewBox="0 0 8 12" fill="none" xmlns="http://www.w3.org/2000/svg"><path d="M6.83006 11C7.01631 10.8126 7.12085 10.5592 7.12085 10.295C7.12085 10.0308 7.01631 9.77737 6.83006 9.59001L3.29006 6.00001L6.83006 2.46001C7.01631 2.27265 7.12085 2.0192 7.12085 1.75501C7.12085 1.49082 7.01631 1.23737 6.83006 1.05001C6.73709 0.956281 6.62649 0.881887 6.50463 0.831118C6.38277 0.780349 6.25207 0.754211 6.12006 0.754211C5.98805 0.754211 5.85734 0.780349 5.73548 0.831118C5.61362 0.881887 5.50302 0.956281 5.41006 1.05001L1.17006 5.29001C1.07633 5.38297 1.00193 5.49357 0.951166 5.61543C0.900397 5.73729 0.874259 5.868 0.874259 6.00001C0.874259 6.13202 0.900397 6.26273 0.951166 6.38459C1.00193 6.50645 1.07633 6.61705 1.17006 6.71001L5.41006 11C5.50302 11.0937 5.61362 11.1681 5.73548 11.2189C5.85734 11.2697 5.98805 11.2958 6.12006 11.2958C6.25207 11.2958 6.38277 11.2697 6.50463 11.2189C6.62649 11.1681 6.73709 11.0937 6.83006 11Z" fill="white"></path></symbol><symbol id="facebook-blue" width="11" height="21" viewBox="0 0 11 21" fill="none" xmlns="http://www.w3.org/2000/svg"><path d="M10.2792 11.7233L10.8493 7.95146H7.2831V5.50376C7.2831 4.47185 7.78124 3.46602 9.37858 3.46602H11V0.254854C11 0.254854 9.52849 0 8.12167 0C5.18452 0 3.26484 1.80641 3.26484 5.0767V7.95146H0V11.7233H3.26484V20.8415C3.91949 20.9457 4.59047 21 5.27397 21C5.95748 21 6.62845 20.9457 7.2831 20.8415V11.7233H10.2792Z" fill="#4285F4"></path></symbol><symbol id="cash" width="31" height="30" viewBox="0 0 31 30" fill="none" xmlns="http://www.w3.org/2000/svg"><path d="M26.9535 16.5035V11.6428C26.9535 9.98593 25.6103 8.64278 23.9535 8.64278H4C2.34315 8.64278 1 9.98593 1 11.6428V25.652C1 27.3088 2.34315 28.652 4 28.652H23.9535C25.6103 28.652 26.9535 27.3088 26.9535 25.652V22.2204M26.9535 16.5035H24.0445C22.4658 16.5035 21.186 17.7833 21.186 19.362V19.362C21.186 20.9407 22.4658 22.2204 24.0445 22.2204H26.9788C28.5574 22.2204 29.8372 20.9407 29.8372 19.362V19.362C29.8372 17.7833 28.5322 16.5035 26.9535 16.5035V16.5035Z" stroke="black" stroke-width="2"></path><path d="M24.0693 8.64279L22.132 3.84188C21.6489 2.64478 20.1752 2.21208 19.1216 2.95802L11.0926 8.64279" stroke="black" stroke-width="2"></path><path d="M4.60454 8.64278L13.2151 2.3837C14.3074 1.58972 15.8563 2.08406 16.2867 3.36397L16.8604 5.06972" stroke="black" stroke-width="2"></path></symbol><symbol id="close" width="22" height="22" viewBox="0 0 22 22" fill="none" xmlns="http://www.w3.org/2000/svg"><path d="M14.7098 7.29002C14.6169 7.19629 14.5063 7.1219 14.3844 7.07113C14.2626 7.02036 14.1318 6.99422 13.9998 6.99422C13.8678 6.99422 13.7371 7.02036 13.6153 7.07113C13.4934 7.1219 13.3828 7.19629 13.2898 7.29002L10.9998 9.59002L8.70984 7.29002C8.52153 7.10171 8.26614 6.99593 7.99984 6.99593C7.73353 6.99593 7.47814 7.10171 7.28983 7.29002C7.10153 7.47832 6.99574 7.73372 6.99574 8.00002C6.99574 8.26632 7.10153 8.52171 7.28983 8.71002L9.58984 11L7.28983 13.29C7.19611 13.383 7.12171 13.4936 7.07094 13.6154C7.02018 13.7373 6.99404 13.868 6.99404 14C6.99404 14.132 7.02018 14.2627 7.07094 14.3846C7.12171 14.5065 7.19611 14.6171 7.28983 14.71C7.3828 14.8037 7.4934 14.8781 7.61526 14.9289C7.73712 14.9797 7.86782 15.0058 7.99984 15.0058C8.13185 15.0058 8.26255 14.9797 8.38441 14.9289C8.50627 14.8781 8.61687 14.8037 8.70984 14.71L10.9998 12.41L13.2898 14.71C13.3828 14.8037 13.4934 14.8781 13.6153 14.9289C13.7371 14.9797 13.8678 15.0058 13.9998 15.0058C14.1318 15.0058 14.2626 14.9797 14.3844 14.9289C14.5063 14.8781 14.6169 14.8037 14.7098 14.71C14.8036 14.6171 14.878 14.5065 14.9287 14.3846C14.9795 14.2627 15.0056 14.132 15.0056 14C15.0056 13.868 14.9795 13.7373 14.9287 13.6154C14.878 13.4936 14.8036 13.383 14.7098 13.29L12.4098 11L14.7098 8.71002C14.8036 8.61706 14.878 8.50645 14.9287 8.38459C14.9795 8.26274 15.0056 8.13203 15.0056 8.00002C15.0056 7.86801 14.9795 7.7373 14.9287 7.61544C14.878 7.49358 14.8036 7.38298 14.7098 7.29002V7.29002ZM18.0698 3.93002C17.1474 2.97492 16.0439 2.21309 14.8239 1.689C13.6038 1.16491 12.2916 0.889052 10.9638 0.877514C9.63605 0.865976 8.31926 1.11899 7.09029 1.6218C5.86133 2.12461 4.74481 2.86714 3.80589 3.80607C2.86696 4.745 2.12443 5.86151 1.62162 7.09048C1.11881 8.31944 0.865793 9.63624 0.877331 10.964C0.888869 12.2918 1.16473 13.604 1.68882 14.8241C2.21291 16.0441 2.97473 17.1476 3.92984 18.07C4.8523 19.0251 5.95575 19.7869 7.17579 20.311C8.39583 20.8351 9.70803 21.111 11.0358 21.1225C12.3636 21.1341 13.6804 20.881 14.9094 20.3782C16.1383 19.8754 17.2549 19.1329 18.1938 18.194C19.1327 17.255 19.8752 16.1385 20.3781 14.9096C20.8809 13.6806 21.1339 12.3638 21.1223 11.036C21.1108 9.70821 20.8349 8.39601 20.3109 7.17597C19.7868 5.95593 19.0249 4.85249 18.0698 3.93002V3.93002ZM16.6598 16.66C15.3519 17.9694 13.6304 18.7848 11.7886 18.9673C9.94688 19.1498 8.09884 18.6881 6.55936 17.6608C5.01987 16.6335 3.88419 15.1042 3.34581 13.3335C2.80742 11.5628 2.89964 9.66016 3.60675 7.9498C4.31386 6.23945 5.59211 4.82717 7.22373 3.95358C8.85534 3.07999 10.7394 2.79915 12.5548 3.15889C14.3703 3.51863 16.0049 4.49671 17.1801 5.92648C18.3553 7.35625 18.9984 9.14926 18.9998 11C19.0034 12.0513 18.7984 13.0929 18.3968 14.0644C17.9951 15.0359 17.4047 15.9182 16.6598 16.66V16.66Z" fill="black"></path></symbol><symbol id="credit-card" width="32" height="24" viewBox="0 0 32 24" xmlns="http://www.w3.org/2000/svg"><path d="M29.5 1.875H2.5C1.87868 1.875 1.375 2.37868 1.375 3V21C1.375 21.6213 1.87868 22.125 2.5 22.125H29.5C30.1213 22.125 30.625 21.6213 30.625 21V3C30.625 2.37868 30.1213 1.875 29.5 1.875Z" stroke="black" stroke-width="2" stroke-linecap="round" stroke-linejoin="round"></path><path d="M21.625 17.625H26.125" stroke="black" stroke-width="2" stroke-linecap="round" stroke-linejoin="round"></path><path d="M14.875 17.625H17.125" stroke="black" stroke-width="2" stroke-linecap="round" stroke-linejoin="round"></path><path d="M1.375 7.62656H30.625" stroke="black" stroke-width="2" stroke-linecap="round" stroke-linejoin="round"></path></symbol><symbol id="facebook" width="16" height="25" viewBox="0 0 16 25" fill="none" xmlns="http://www.w3.org/2000/svg"><path d="M15.4811 9.29142C15.3807 9.14278 15.2452 9.0211 15.0867 8.93708C14.9282 8.85305 14.7515 8.80924 14.5721 8.80951H11.2864V6.61904H13.6959C13.9864 6.61904 14.2649 6.50365 14.4703 6.29825C14.6757 6.09285 14.7911 5.81427 14.7911 5.5238V1.14285C14.7911 0.85237 14.6757 0.573792 14.4703 0.368395C14.2649 0.162998 13.9864 0.0476074 13.6959 0.0476074H10.1911C8.50637 0.0476074 6.89062 0.716874 5.69932 1.90818C4.50801 3.09948 3.83875 4.71523 3.83875 6.39999V8.80951H1.42922C1.13875 8.80951 0.860169 8.9249 0.654772 9.1303C0.449375 9.3357 0.333984 9.61428 0.333984 9.90475V14.2857C0.333984 14.5762 0.449375 14.8548 0.654772 15.0602C0.860169 15.2656 1.13875 15.3809 1.42922 15.3809H3.83875V23.0476C3.83875 23.3381 3.95414 23.6167 4.15953 23.8221C4.36493 24.0275 4.64351 24.1428 4.93398 24.1428H10.1911C10.4816 24.1428 10.7602 24.0275 10.9656 23.8221C11.171 23.6167 11.2864 23.3381 11.2864 23.0476V15.3809H12.8197C13.0391 15.3812 13.2534 15.3155 13.435 15.1925C13.6166 15.0694 13.7571 14.8947 13.8383 14.6909L15.5907 10.31C15.6568 10.1441 15.6814 9.96464 15.6623 9.78711C15.6432 9.60958 15.581 9.43941 15.4811 9.29142V9.29142ZM12.0749 13.1905H10.1911C9.90065 13.1905 9.62207 13.3059 9.41668 13.5113C9.21128 13.7167 9.09589 13.9952 9.09589 14.2857V21.9524H6.02922V14.2857C6.02922 13.9952 5.91383 13.7167 5.70843 13.5113C5.50304 13.3059 5.22446 13.1905 4.93398 13.1905H2.52446V11H4.93398C5.22446 11 5.50304 10.8846 5.70843 10.6792C5.91383 10.4738 6.02922 10.1952 6.02922 9.90475V6.39999C6.03211 5.29707 6.47153 4.24015 7.25141 3.46027C8.03129 2.68039 9.08821 2.24097 10.1911 2.23808H12.6007V4.42856H11.7245C11.3536 4.37454 10.9757 4.39721 10.6139 4.49517C10.2522 4.59314 9.91448 4.76431 9.6216 4.99808C9.44387 5.18416 9.30566 5.40431 9.2153 5.64525C9.12495 5.88618 9.08433 6.14293 9.09589 6.39999V9.90475C9.09589 10.1952 9.21128 10.4738 9.41668 10.6792C9.62207 10.8846 9.90065 11 10.1911 11H12.9511L12.0749 13.1905Z" fill="black"></path></symbol><symbol id="inst" width="22" height="23" viewBox="0 0 22 23" fill="none" xmlns="http://www.w3.org/2000/svg"><path d="M16.8488 4.02762C16.5889 4.02762 16.3348 4.1047 16.1186 4.24912C15.9025 4.39354 15.734 4.5988 15.6346 4.83895C15.5351 5.07911 15.5091 5.34337 15.5598 5.59831C15.6105 5.85326 15.7357 6.08744 15.9195 6.27125C16.1033 6.45505 16.3375 6.58023 16.5924 6.63094C16.8473 6.68165 17.1116 6.65563 17.3518 6.55615C17.5919 6.45667 17.7972 6.28822 17.9416 6.07209C18.086 5.85595 18.1631 5.60185 18.1631 5.34191C18.1631 4.99334 18.0246 4.65904 17.7781 4.41257C17.5317 4.16609 17.1974 4.02762 16.8488 4.02762V4.02762ZM21.8869 6.6781C21.8656 5.76938 21.6954 4.8703 21.3831 4.01667C21.1046 3.28629 20.6712 2.62493 20.1126 2.0781C19.5703 1.51671 18.9074 1.08601 18.174 0.818574C17.3227 0.49675 16.4226 0.322661 15.5126 0.303812C14.3517 0.238098 13.9793 0.238098 11.0002 0.238098C8.02119 0.238098 7.6488 0.238098 6.48785 0.303812C5.57788 0.322661 4.6778 0.49675 3.82642 0.818574C3.09445 1.08871 2.43211 1.51905 1.88785 2.0781C1.32646 2.62044 0.895759 3.28334 0.628328 4.01667C0.306504 4.86805 0.132415 5.76812 0.113566 6.6781C0.0478515 7.83905 0.0478516 8.21143 0.0478516 11.1905C0.0478516 14.1695 0.0478515 14.5419 0.113566 15.7029C0.132415 16.6128 0.306504 17.5129 0.628328 18.3643C0.895759 19.0976 1.32646 19.7605 1.88785 20.3029C2.43211 20.8619 3.09445 21.2922 3.82642 21.5624C4.6778 21.8842 5.57788 22.0583 6.48785 22.0771C7.6488 22.1429 8.02119 22.1429 11.0002 22.1429C13.9793 22.1429 14.3517 22.1429 15.5126 22.0771C16.4226 22.0583 17.3227 21.8842 18.174 21.5624C18.9074 21.295 19.5703 20.8643 20.1126 20.3029C20.6736 19.7581 21.1075 19.0961 21.3831 18.3643C21.6954 17.5107 21.8656 16.6116 21.8869 15.7029C21.8869 14.5419 21.9526 14.1695 21.9526 11.1905C21.9526 8.21143 21.9526 7.83905 21.8869 6.6781V6.6781ZM19.9155 15.5714C19.9075 16.2667 19.7816 16.9555 19.5431 17.6086C19.3682 18.0852 19.0873 18.5159 18.7217 18.8681C18.3664 19.2301 17.9366 19.5104 17.4621 19.6895C16.8091 19.928 16.1202 20.0539 15.425 20.0619C14.3298 20.1167 13.9245 20.1276 11.044 20.1276C8.16357 20.1276 7.75833 20.1276 6.66309 20.0619C5.94121 20.0754 5.22241 19.9643 4.53833 19.7333C4.08466 19.545 3.67458 19.2654 3.33357 18.9119C2.97004 18.5601 2.69268 18.129 2.52309 17.6524C2.25569 16.9899 2.10739 16.2855 2.08499 15.5714C2.08499 14.4762 2.01928 14.071 2.01928 11.1905C2.01928 8.31 2.01928 7.90477 2.08499 6.80953C2.0899 6.09878 2.21965 5.39442 2.46833 4.72857C2.66114 4.26629 2.95709 3.8542 3.33357 3.52381C3.66631 3.14724 4.07755 2.84816 4.53833 2.64762C5.20593 2.40672 5.90956 2.2808 6.61928 2.27524C7.71452 2.27524 8.11976 2.20953 11.0002 2.20953C13.8807 2.20953 14.2859 2.20953 15.3812 2.27524C16.0764 2.28322 16.7652 2.40913 17.4183 2.64762C17.916 2.83234 18.3627 3.13264 18.7217 3.52381C19.0806 3.86025 19.361 4.27157 19.5431 4.72857C19.7865 5.3955 19.9125 6.09957 19.9155 6.80953C19.9702 7.90477 19.9812 8.31 19.9812 11.1905C19.9812 14.071 19.9702 14.4762 19.9155 15.5714ZM11.0002 5.57191C9.88945 5.57407 8.80424 5.90544 7.88171 6.52413C6.95918 7.14282 6.24074 8.02108 5.81717 9.04792C5.39359 10.0748 5.28388 11.2041 5.50191 12.2933C5.71994 13.3825 6.25592 14.3826 7.04213 15.1673C7.82833 15.9519 8.82948 16.486 9.91908 16.7019C11.0087 16.9178 12.1378 16.8059 13.1638 16.3803C14.1899 15.9547 15.0667 15.2346 15.6836 14.3109C16.3005 13.3871 16.6298 12.3013 16.6298 11.1905C16.6312 10.4513 16.4865 9.71914 16.204 9.0361C15.9214 8.35305 15.5067 7.7326 14.9835 7.21044C14.4603 6.68828 13.839 6.2747 13.1554 5.9935C12.4718 5.7123 11.7394 5.56902 11.0002 5.57191V5.57191ZM11.0002 14.8376C10.2789 14.8376 9.57376 14.6237 8.97399 14.223C8.37422 13.8222 7.90676 13.2526 7.63071 12.5862C7.35467 11.9198 7.28244 11.1864 7.42317 10.479C7.56389 9.77148 7.91125 9.12162 8.42131 8.61156C8.93138 8.1015 9.58124 7.75414 10.2887 7.61342C10.9962 7.47269 11.7295 7.54492 12.3959 7.82096C13.0624 8.097 13.632 8.56447 14.0327 9.16424C14.4335 9.76401 14.6474 10.4691 14.6474 11.1905C14.6474 11.6694 14.553 12.1437 14.3698 12.5862C14.1865 13.0287 13.9178 13.4307 13.5792 13.7694C13.2405 14.1081 12.8384 14.3767 12.3959 14.56C11.9534 14.7433 11.4792 14.8376 11.0002 14.8376V14.8376Z" fill="black"></path></symbol><symbol id="logo-header-transparent" width="190" height="32" viewBox="0 0 190 32" fill="none" xmlns="http://www.w3.org/2000/svg"><path d="M20.7969 21.5259C22.627 20.6257 24.0828 19.439 25.081 17.8431C26.0793 16.2881 26.5784 14.4467 26.5784 12.3598C26.5784 10.191 26.0377 8.26776 24.9978 6.67186C23.9164 5.03505 22.419 3.80744 20.4641 2.94812C18.5092 2.08879 16.18 1.63867 13.518 1.63867H0.0415963V8.10407H8.36034V8.06315H12.9773C14.6826 8.06315 15.972 8.43143 16.8455 9.168C17.7189 9.90456 18.1349 10.9685 18.1349 12.3189C18.1349 13.6692 17.7189 14.7332 16.8455 15.4288C15.972 16.1654 14.6826 16.5336 12.9773 16.5336H8.48513H0V30.5284H8.31875V22.8354H12.8525L18.1765 30.5284H27.1191L20.7969 21.5259Z" fill="black"></path><path d="M43.2578 1.63672V30.6083H51.5766V1.63672H43.2578Z" fill="black"></path><path d="M87.6381 1.63672V17.0637L74.6608 1.63672H67.7979V30.6083H75.9502V15.1813L88.9275 30.6083H95.7904V1.63672H87.6381Z" fill="black"></path><path d="M177.356 14.4857L189.376 1.63672H180.226L168.829 13.6673V1.63672H160.552V30.6083H168.787V23.3654L171.907 20.0918L180.309 30.6083H190L177.356 14.4857Z" fill="black"></path><path d="M144.539 15.4687L137.801 15.4277H118.959H112.054H111.929V16.0415C111.929 16.3689 111.888 16.6553 111.888 16.9827C111.888 19.8471 112.595 22.4251 114.009 24.7166C115.423 27.0082 117.378 28.8087 119.874 30.0772C121.829 31.1002 123.95 31.714 126.321 31.9186H126.362C126.986 31.9595 127.61 32.0004 128.276 32.0004C129.357 32.0004 130.397 31.9186 131.437 31.7549C133.308 31.4685 135.055 30.8956 136.678 30.0363C139.173 28.7268 141.128 26.9673 142.542 24.6757C143.832 22.5888 144.539 20.2563 144.664 17.7193C144.664 17.4738 144.664 17.2282 144.664 16.9418C144.622 16.4507 144.622 15.9597 144.539 15.4687Z" fill="#FFD345"></path><path d="M144.622 17.7594C144.622 17.5139 144.622 17.2684 144.622 16.9819C144.622 16.4909 144.622 15.9589 144.539 15.4679H137.759C137.468 10.5984 133.35 6.75184 128.317 6.75184C123.326 6.75184 119.208 10.5984 118.875 15.4679H111.971C112.303 6.87461 119.499 0 128.275 0C137.26 0 144.58 7.20197 144.58 16.0407C144.705 16.6136 144.663 17.1865 144.622 17.7594Z" fill="#FFD345"></path></symbol><symbol id="logo-header" width="190" height="32" viewBox="0 0 190 32" fill="none" xmlns="http://www.w3.org/2000/svg"><path d="M20.7969 21.5259C22.627 20.6257 24.0828 19.439 25.081 17.8431C26.0793 16.2881 26.5784 14.4467 26.5784 12.3598C26.5784 10.191 26.0377 8.26776 24.9978 6.67186C23.9164 5.03505 22.419 3.80744 20.4641 2.94812C18.5092 2.08879 16.18 1.63867 13.518 1.63867H0.0415963V8.10407H8.36034V8.06315H12.9773C14.6826 8.06315 15.972 8.43143 16.8455 9.168C17.7189 9.90456 18.1349 10.9685 18.1349 12.3189C18.1349 13.6692 17.7189 14.7332 16.8455 15.4288C15.972 16.1654 14.6826 16.5336 12.9773 16.5336H8.48513H0V30.5284H8.31875V22.8354H12.8525L18.1765 30.5284H27.1191L20.7969 21.5259Z" fill="black"></path><path d="M43.2577 1.63672V30.6083H51.5764V1.63672H43.2577Z" fill="black"></path><path d="M87.638 1.63672V17.0637L74.6607 1.63672H67.7977V30.6083H75.9501V15.1813L88.9273 30.6083H95.7903V1.63672H87.638Z" fill="black"></path><path d="M177.356 14.4857L189.376 1.63672H180.225L168.829 13.6673V1.63672H160.552V30.6083H168.787V23.3654L171.907 20.0918L180.309 30.6083H190L177.356 14.4857Z" fill="black"></path><path d="M144.539 15.4687L137.8 15.4277H118.958H112.054H111.929V16.0415C111.929 16.3689 111.887 16.6553 111.887 16.9827C111.887 19.8471 112.595 22.4251 114.009 24.7166C115.423 27.0082 117.378 28.8087 119.873 30.0772C121.828 31.1002 123.95 31.714 126.32 31.9186H126.362C126.986 31.9595 127.61 32.0004 128.275 32.0004C129.357 32.0004 130.397 31.9186 131.437 31.7549C133.308 31.4685 135.055 30.8956 136.677 30.0363C139.173 28.7268 141.128 26.9673 142.542 24.6757C143.831 22.5888 144.539 20.2563 144.663 17.7193C144.663 17.4738 144.663 17.2282 144.663 16.9418C144.622 16.4507 144.622 15.9597 144.539 15.4687Z" fill="white"></path><path d="M144.622 17.7594C144.622 17.5139 144.622 17.2684 144.622 16.9819C144.622 16.4909 144.622 15.9589 144.539 15.4679H137.759C137.468 10.5984 133.35 6.75184 128.317 6.75184C123.326 6.75184 119.208 10.5984 118.875 15.4679H111.971C112.304 6.87461 119.499 0 128.276 0C137.26 0 144.58 7.20197 144.58 16.0407C144.705 16.6136 144.664 17.1865 144.622 17.7594Z" fill="white"></path></symbol><symbol id="twitter" width="16" height="25" viewBox="0 0 16 25" fill="none" xmlns="http://www.w3.org/2000/svg"><path d="M15.1513 21.4133L14.0978 18.288C14.0482 18.1412 13.9681 18.0066 13.8626 17.8931C13.7572 17.7795 13.6289 17.6896 13.4862 17.6293C13.3435 17.5689 13.1896 17.5395 13.0347 17.543C12.8798 17.5465 12.7274 17.5828 12.5876 17.6495C12.1642 17.8127 11.7168 17.9048 11.2634 17.9222C11.0086 17.9545 10.751 17.89 10.5415 17.7415C10.3501 17.488 10.257 17.1738 10.2794 16.857V12.0952H13.5834C13.7272 12.0953 13.8697 12.067 14.0026 12.012C14.1355 11.957 14.2563 11.8763 14.358 11.7746C14.4597 11.6729 14.5404 11.5521 14.5954 11.4192C14.6504 11.2863 14.6787 11.1438 14.6786 11V6.72279C14.6787 6.57894 14.6504 6.43648 14.5954 6.30356C14.5404 6.17064 14.4597 6.04987 14.358 5.94815C14.2563 5.84643 14.1355 5.76576 14.0026 5.71075C13.8697 5.65574 13.7272 5.62747 13.5834 5.62755H10.2955V1.14285C10.2956 0.998993 10.2673 0.856536 10.2123 0.723617C10.1573 0.590699 10.0766 0.469928 9.97488 0.368209C9.87316 0.26649 9.75239 0.185819 9.61947 0.130808C9.48655 0.0757963 9.3441 0.0475241 9.20024 0.0476076H5.99153C5.67954 0.049041 5.37922 0.166417 5.14893 0.376926C4.91865 0.587435 4.77486 0.87604 4.74549 1.18666C4.70177 2.27922 4.33792 3.33485 3.69918 4.22233C3.06043 5.10981 2.17495 5.79 1.15281 6.17837C0.940754 6.25461 0.757408 6.39446 0.62781 6.57881C0.498212 6.76316 0.42868 6.98302 0.428711 7.20836V11.1337C0.428629 11.2775 0.456902 11.42 0.511914 11.5529C0.566926 11.6858 0.647597 11.8066 0.749316 11.9083C0.851034 12.01 0.971805 12.0907 1.10472 12.1457C1.23764 12.2007 1.3801 12.229 1.52395 12.2289H2.64592V17.196C2.66434 19.0388 3.40652 20.8006 4.71233 22.101C5.44078 22.7841 6.29729 23.3161 7.23244 23.6664C8.16758 24.0166 9.16284 24.1782 10.1608 24.1418C10.2196 24.1418 10.2795 24.1418 10.3394 24.1407C12.0325 24.1129 14.3021 23.4315 15.0187 22.3802C15.1142 22.2403 15.1759 22.0801 15.1989 21.9123C15.2219 21.7446 15.2056 21.5737 15.1513 21.4133ZM10.303 21.9502C9.56625 22.0088 8.8254 21.9137 8.1274 21.6708C7.4294 21.428 6.78948 21.0427 6.24824 20.5395C5.3569 19.6536 4.84979 18.4526 4.8364 17.196V11.1337C4.83648 10.9898 4.80821 10.8474 4.7532 10.7145C4.69819 10.5815 4.61752 10.4608 4.5158 10.359C4.41408 10.2573 4.29331 10.1767 4.16039 10.1216C4.02747 10.0666 3.88501 10.0384 3.74116 10.0384H2.61919V7.93888C3.72516 7.39747 4.68338 6.59599 5.41174 5.60312C6.14009 4.61025 6.61687 3.45559 6.8012 2.23808H8.105V6.72279C8.10492 6.86664 8.1332 7.0091 8.18821 7.14201C8.24322 7.27493 8.32389 7.3957 8.42561 7.49742C8.52733 7.59914 8.6481 7.67981 8.78102 7.73482C8.91393 7.78984 9.05639 7.81811 9.20024 7.81803H12.4881V9.90475H9.18425C9.0404 9.90467 8.89794 9.93294 8.76502 9.98795C8.63211 10.043 8.51133 10.1236 8.40962 10.2254C8.3079 10.3271 8.22723 10.4478 8.17221 10.5808C8.1172 10.7137 8.08893 10.8561 8.08901 11V16.8751C8.07386 17.3252 8.14905 17.7737 8.31017 18.1942C8.47128 18.6147 8.71503 18.9987 9.02703 19.3234C9.33457 19.606 9.69722 19.822 10.0922 19.9579C10.4872 20.0937 10.906 20.1464 11.3223 20.1127C11.6709 20.0994 12.0179 20.0579 12.3598 19.9886L12.8251 21.3673C12.0322 21.7295 11.1743 21.9278 10.303 21.9502Z" fill="black"></path></symbol><symbol id="google" width="21" height="21" viewBox="0 0 21 21" fill="none" xmlns="http://www.w3.org/2000/svg"><path d="M21.0001 10.7397C21.0001 9.97222 20.93 9.23785 20.7998 8.53168H10.7236V12.5774L16.5267 12.5787C16.2913 13.9248 15.5339 15.0723 14.3732 15.8374V18.4622H17.8275C19.8445 16.6343 21.0001 13.9322 21.0001 10.7397Z" fill="#4285F4"></path><path d="M14.3734 15.8374C13.4119 16.4724 12.1736 16.8439 10.7251 16.8439C7.9268 16.8439 5.55299 14.9976 4.70287 12.5088H1.13965V15.2158C2.90499 18.6461 6.53332 21 10.7251 21C13.6222 21 16.0561 20.067 17.8277 18.461L14.3734 15.8374Z" fill="#118252"></path><path d="M4.36827 10.5006C4.36827 9.80181 4.48721 9.1263 4.70381 8.49123V5.78424H1.14058C0.410658 7.20271 0 8.80386 0 10.5006C0 12.1974 0.41191 13.7985 1.14058 15.217L4.70381 12.51C4.48721 11.875 4.36827 11.1994 4.36827 10.5006Z" fill="#FFD345"></path><path d="M10.7251 4.15611C12.3063 4.15611 13.7224 4.68942 14.8404 5.73151L17.9016 2.73641C16.0423 1.04087 13.6185 0 10.7251 0C6.53457 0 2.90499 2.3539 1.13965 5.78423L4.70287 8.49122C5.55299 6.00246 7.92681 4.15611 10.7251 4.15611Z" fill="#E94235"></path></symbol><symbol id="logo" width="252" height="43" viewBox="0 0 252 43" fill="none" xmlns="http://www.w3.org/2000/svg"><path d="M27.5832 28.9236C30.0105 27.7139 31.9413 26.1193 33.2653 23.9748C34.5893 21.8853 35.2513 19.4108 35.2513 16.6065C35.2513 13.6922 34.5342 11.1078 33.155 8.9633C31.7207 6.76382 29.7347 5.1142 27.1419 3.95948C24.549 2.80475 21.4597 2.19989 17.9291 2.19989H0.0551698V10.8878H11.0884V10.8329H17.2119C19.4737 10.8329 21.1839 11.3277 22.3424 12.3175C23.5009 13.3073 24.0525 14.7369 24.0525 16.5515C24.0525 18.3661 23.5009 19.7958 22.3424 20.7305C21.1839 21.7203 19.4737 22.2152 17.2119 22.2152H11.254H0V41.0208H11.0333V30.6832H17.0464L24.1077 41.0208H35.9685L27.5832 28.9236Z" fill="black"></path><path d="M57.373 2.19971V41.1306H68.4063V2.19971H57.373Z" fill="black"></path><path d="M116.235 2.19971V22.9298L99.0234 2.19971H89.9209V41.1306H100.734V20.4004L117.945 41.1306H127.048V2.19971H116.235Z" fill="black"></path><path d="M235.23 19.4656L251.173 2.19971H239.036L223.921 18.3659V2.19971H212.942V41.1306H223.865V31.3978L228.003 26.9989L239.146 41.1306H252L235.23 19.4656Z" fill="black"></path><path d="M191.703 20.785L182.766 20.73H157.776H148.618H148.453V21.5548C148.453 21.9947 148.397 22.3796 148.397 22.8195C148.397 26.6686 149.335 30.1328 151.211 33.212C153.087 36.2913 155.679 38.7108 158.989 40.4154C161.582 41.79 164.396 42.6148 167.54 42.8898H167.595C168.423 42.9448 169.25 42.9997 170.133 42.9997C171.567 42.9997 172.947 42.8898 174.326 42.6698C176.808 42.2849 179.125 41.5151 181.277 40.3604C184.587 38.6008 187.179 36.2363 189.055 33.1571C190.765 30.3527 191.703 27.2185 191.869 23.8093C191.869 23.4793 191.869 23.1494 191.869 22.7645C191.813 22.1047 191.813 21.4448 191.703 20.785Z" fill="white"></path><path d="M191.813 23.8644C191.813 23.5345 191.813 23.2045 191.813 22.8196C191.813 22.1598 191.813 21.445 191.703 20.7851H182.711C182.325 14.2417 176.863 9.07287 170.188 9.07287C163.568 9.07287 158.107 14.2417 157.665 20.7851H148.508C148.949 9.23783 158.493 0 170.133 0C182.049 0 191.758 9.67772 191.758 21.5549C191.924 22.3248 191.869 23.0946 191.813 23.8644Z" fill="white"></path></symbol></svg>