<?xml version="1.0" encoding="UTF-8" standalone="no"?><svg xmlns="http://www.w3.org/2000/svg" xmlns:xlink="http://www.w3.org/1999/xlink"><symbol id="arrow" width="41" height="16" viewBox="0 0 41 16" xmlns="http://www.w3.org/2000/svg"><path d="M40.7071 8.70711C41.0976 8.31658 41.0976 7.68342 40.7071 7.29289L34.3431 0.928932C33.9526 0.538408 33.3195 0.538408 32.9289 0.928932C32.5384 1.31946 32.5384 1.95262 32.9289 2.34315L38.5858 8L32.9289 13.6569C32.5384 14.0474 32.5384 14.6805 32.9289 15.0711C33.3195 15.4616 33.9526 15.4616 34.3431 15.0711L40.7071 8.70711ZM0 9H40V7H0V9Z"></path></symbol><symbol id="cart" width="19" height="21" viewBox="0 0 19 21" xmlns="http://www.w3.org/2000/svg"><path d="M18 13C17.9978 12.3997 17.8155 11.8139 17.4768 11.3183C17.1381 10.8227 16.6585 10.4401 16.1 10.22L17.97 3.22001C18.0091 3.07093 18.0131 2.91484 17.9819 2.76392C17.9507 2.61301 17.885 2.47135 17.79 2.35001C17.6929 2.23632 17.5715 2.14585 17.4348 2.08528C17.298 2.02471 17.1495 1.99557 17 2.00001H3.3L2.97 0.74001C2.91263 0.52692 2.78638 0.338794 2.61093 0.204945C2.43547 0.0710953 2.22068 -0.000958872 2 9.63738e-06H0V2.00001H1.23L3.71 11.26C3.7686 11.4782 3.89934 11.6701 4.08092 11.8044C4.26251 11.9388 4.48424 12.0077 4.71 12H15C15.2652 12 15.5196 12.1054 15.7071 12.2929C15.8946 12.4804 16 12.7348 16 13C16 13.2652 15.8946 13.5196 15.7071 13.7071C15.5196 13.8947 15.2652 14 15 14H2C1.73478 14 1.48043 14.1054 1.29289 14.2929C1.10536 14.4804 1 14.7348 1 15C1 15.2652 1.10536 15.5196 1.29289 15.7071C1.48043 15.8947 1.73478 16 2 16H3.18C3.01554 16.4531 2.96269 16.9392 3.02593 17.4171C3.08917 17.895 3.26665 18.3506 3.54332 18.7454C3.81999 19.1401 4.18772 19.4624 4.61535 19.6849C5.04299 19.9074 5.51795 20.0235 6 20.0235C6.48205 20.0235 6.95701 19.9074 7.38465 19.6849C7.81228 19.4624 8.18001 19.1401 8.45668 18.7454C8.73335 18.3506 8.91083 17.895 8.97407 17.4171C9.03731 16.9392 8.98446 16.4531 8.82 16H11.18C11.0303 16.4126 10.9729 16.853 11.012 17.2902C11.051 17.7274 11.1856 18.1507 11.406 18.5302C11.6265 18.9098 11.9276 19.2363 12.288 19.4868C12.6485 19.7373 13.0595 19.9056 13.4921 19.98C13.9247 20.0543 14.3683 20.0328 14.7917 19.917C15.215 19.8012 15.6078 19.5939 15.9424 19.3097C16.2769 19.0255 16.545 18.6714 16.7277 18.2723C16.9105 17.8732 17.0034 17.4389 17 17C16.9981 16.4834 16.8602 15.9764 16.6 15.53C17.0276 15.2604 17.3802 14.8871 17.6249 14.4448C17.8697 14.0025 17.9987 13.5055 18 13ZM14.09 10H5.5L3.84 4.00001H15.7L14.09 10ZM6 18C5.80222 18 5.60888 17.9414 5.44443 17.8315C5.27998 17.7216 5.15181 17.5654 5.07612 17.3827C5.00043 17.2 4.98063 16.9989 5.01921 16.8049C5.0578 16.6109 5.15304 16.4328 5.29289 16.2929C5.43275 16.153 5.61093 16.0578 5.80491 16.0192C5.99889 15.9806 6.19996 16.0004 6.38268 16.0761C6.56541 16.1518 6.72159 16.28 6.83147 16.4444C6.94135 16.6089 7 16.8022 7 17C7 17.2652 6.89464 17.5196 6.70711 17.7071C6.51957 17.8947 6.26522 18 6 18ZM14 18C13.8022 18 13.6089 17.9414 13.4444 17.8315C13.28 17.7216 13.1518 17.5654 13.0761 17.3827C13.0004 17.2 12.9806 16.9989 13.0192 16.8049C13.0578 16.6109 13.153 16.4328 13.2929 16.2929C13.4327 16.153 13.6109 16.0578 13.8049 16.0192C13.9989 15.9806 14.2 16.0004 14.3827 16.0761C14.5654 16.1518 14.7216 16.28 14.8315 16.4444C14.9414 16.6089 15 16.8022 15 17C15 17.2652 14.8946 17.5196 14.7071 17.7071C14.5196 17.8947 14.2652 18 14 18Z"></path></symbol><symbol id="chevron-down" width="12" height="8" viewBox="0 0 12 8" xmlns="http://www.w3.org/2000/svg"><path d="M1.70711 0.792893C1.31658 0.402369 0.683417 0.402369 0.292893 0.792893C-0.0976311 1.18342 -0.0976311 1.81658 0.292893 2.20711L1.70711 0.792893ZM6 6.5L5.29289 7.20711L6 7.91421L6.70711 7.20711L6 6.5ZM11.7071 2.20711C12.0976 1.81658 12.0976 1.18342 11.7071 0.792893C11.3166 0.402369 10.6834 0.402369 10.2929 0.792893L11.7071 2.20711ZM0.292893 2.20711L5.29289 7.20711L6.70711 5.79289L1.70711 0.792893L0.292893 2.20711ZM6.70711 7.20711L11.7071 2.20711L10.2929 0.792893L5.29289 5.79289L6.70711 7.20711Z"></path></symbol><symbol id="chevron-left" width="24" height="24" viewBox="0 0 24 24" xmlns="http://www.w3.org/2000/svg"><path d="M15.7071 6.70711C16.0976 6.31658 16.0976 5.68342 15.7071 5.29289C15.3166 4.90237 14.6834 4.90237 14.2929 5.29289L15.7071 6.70711ZM9 12L8.29289 11.2929L7.58579 12L8.29289 12.7071L9 12ZM14.2929 18.7071C14.6834 19.0976 15.3166 19.0976 15.7071 18.7071C16.0976 18.3166 16.0976 17.6834 15.7071 17.2929L14.2929 18.7071ZM14.2929 5.29289L8.29289 11.2929L9.70711 12.7071L15.7071 6.70711L14.2929 5.29289ZM8.29289 12.7071L14.2929 18.7071L15.7071 17.2929L9.70711 11.2929L8.29289 12.7071Z"></path></symbol><symbol id="delete-icon" width="18" height="20" viewBox="0 0 18 20" xmlns="http://www.w3.org/2000/svg"><path d="M17 4H13V3C13 2.20435 12.6839 1.44129 12.1213 0.87868C11.5587 0.316071 10.7956 0 10 0H8C7.20435 0 6.44129 0.316071 5.87868 0.87868C5.31607 1.44129 5 2.20435 5 3V4H1C0.734784 4 0.48043 4.10536 0.292893 4.29289C0.105357 4.48043 0 4.73478 0 5C0 5.26522 0.105357 5.51957 0.292893 5.70711C0.48043 5.89464 0.734784 6 1 6H2V17C2 17.7956 2.31607 18.5587 2.87868 19.1213C3.44129 19.6839 4.20435 20 5 20H13C13.7956 20 14.5587 19.6839 15.1213 19.1213C15.6839 18.5587 16 17.7956 16 17V6H17C17.2652 6 17.5196 5.89464 17.7071 5.70711C17.8946 5.51957 18 5.26522 18 5C18 4.73478 17.8946 4.48043 17.7071 4.29289C17.5196 4.10536 17.2652 4 17 4ZM7 3C7 2.73478 7.10536 2.48043 7.29289 2.29289C7.48043 2.10536 7.73478 2 8 2H10C10.2652 2 10.5196 2.10536 10.7071 2.29289C10.8946 2.48043 11 2.73478 11 3V4H7V3ZM14 17C14 17.2652 13.8946 17.5196 13.7071 17.7071C13.5196 17.8946 13.2652 18 13 18H5C4.73478 18 4.48043 17.8946 4.29289 17.7071C4.10536 17.5196 4 17.2652 4 17V6H14V17Z"></path></symbol><symbol id="grid" width="24" height="24" viewBox="0 0 24 24" xmlns="http://www.w3.org/2000/svg"><path d="M1 1H7V7H1V1Z"></path><path d="M1 9H7V15H1V9Z"></path><path d="M1 17H7V23H1V17Z"></path><path d="M9 1H15V7H9V1Z"></path><path d="M9 9H15V15H9V9Z"></path><path d="M9 17H15V23H9V17Z"></path><path d="M17 1H23V7H17V1Z"></path><path d="M17 9H23V15H17V9Z"></path><path d="M17 17H23V23H17V17Z"></path></symbol><symbol id="heart" width="28" height="24" viewBox="0 0 28 24" xmlns="http://www.w3.org/2000/svg"><path d="M14 23C14 23 1.5 16 1.5 7.5C1.5 5.99737 2.02062 4.54114 2.97328 3.37908C3.92593 2.21703 5.25178 1.42093 6.72525 1.12624C8.1987 0.83154 9.7288 1.05646 11.0551 1.76272C12.3814 2.46898 13.4221 3.61296 14 5.00001C14.5779 3.61296 15.6186 2.46898 16.9449 1.76272C18.2712 1.05646 19.8013 0.83154 21.2748 1.12624C22.7482 1.42093 24.0741 2.21703 25.0267 3.37908C25.9794 4.54114 26.5 5.99737 26.5 7.5C26.5 16 14 23 14 23Z" stroke-width="2" stroke-linecap="round" stroke-linejoin="round"></path></symbol><symbol id="list" width="24" height="24" viewBox="0 0 24 24" xmlns="http://www.w3.org/2000/svg"><rect x="1" y="1" width="22" height="6"></rect><rect x="1" y="9" width="22" height="6"></rect><rect x="1" y="17" width="22" height="6"></rect></symbol><symbol id="location" width="18" height="20" viewBox="0 0 18 20" xmlns="http://www.w3.org/2000/svg"><path d="M8 9.90002V15C8 15.2652 8.10536 15.5196 8.29289 15.7071C8.48043 15.8947 8.73478 16 9 16C9.26522 16 9.51957 15.8947 9.70711 15.7071C9.89464 15.5196 10 15.2652 10 15V9.90002C11.214 9.6522 12.2928 8.96243 13.0272 7.96443C13.7616 6.96643 14.0992 5.7313 13.9747 4.49849C13.8501 3.26569 13.2723 2.12304 12.3532 1.29208C11.434 0.461118 10.2391 0.0010376 9 0.0010376C7.76092 0.0010376 6.56598 0.461118 5.64685 1.29208C4.72771 2.12304 4.14986 3.26569 4.02532 4.49849C3.90078 5.7313 4.23843 6.96643 4.9728 7.96443C5.70718 8.96243 6.78596 9.6522 8 9.90002ZM9 2.00002C9.59334 2.00002 10.1734 2.17596 10.6667 2.50561C11.1601 2.83525 11.5446 3.30379 11.7716 3.85197C11.9987 4.40015 12.0581 5.00335 11.9424 5.58529C11.8266 6.16723 11.5409 6.70178 11.1213 7.12134C10.7018 7.5409 10.1672 7.82662 9.58527 7.94237C9.00333 8.05813 8.40013 7.99872 7.85195 7.77166C7.30377 7.54459 6.83524 7.16008 6.50559 6.66673C6.17595 6.17338 6 5.59336 6 5.00002C6 4.20437 6.31607 3.44131 6.87868 2.8787C7.44129 2.31609 8.20435 2.00002 9 2.00002V2.00002ZM13.21 12.42C13.0787 12.3924 12.9432 12.391 12.8113 12.4158C12.6795 12.4406 12.5537 12.4911 12.4414 12.5644C12.329 12.6378 12.2322 12.7325 12.1565 12.8433C12.0808 12.9541 12.0276 13.0787 12 13.21C11.9724 13.3413 11.971 13.4768 11.9958 13.6087C12.0205 13.7406 12.071 13.8663 12.1444 13.9786C12.2178 14.091 12.3125 14.1878 12.4233 14.2635C12.5341 14.3393 12.6587 14.3924 12.79 14.42C15.06 14.87 16 15.68 16 16C16 16.58 13.55 18 9 18C4.45 18 2 16.58 2 16C2 15.68 2.94 14.87 5.21 14.38C5.34132 14.3524 5.46593 14.2993 5.5767 14.2235C5.68747 14.1478 5.78224 14.051 5.8556 13.9386C5.92896 13.8263 5.97947 13.7006 6.00424 13.5687C6.02902 13.4368 6.02758 13.3013 6 13.17C5.97242 13.0387 5.91925 12.9141 5.84352 12.8033C5.76778 12.6925 5.67097 12.5978 5.55861 12.5244C5.44626 12.4511 5.32055 12.4006 5.18867 12.3758C5.05679 12.351 4.92132 12.3524 4.79 12.38C1.75 13.08 0 14.39 0 16C0 18.63 4.53 20 9 20C13.47 20 18 18.63 18 16C18 14.39 16.25 13.08 13.21 12.42Z"></path></symbol><symbol id="message" width="24" height="24" viewBox="0 0 24 24" xmlns="http://www.w3.org/2000/svg"><path d="M5.82307 9.476C5.27078 9.476 4.82307 9.92372 4.82307 10.476C4.82307 11.0283 5.27078 11.476 5.82307 11.476V9.476ZM14.4706 11.476C15.0229 11.476 15.4706 11.0283 15.4706 10.476C15.4706 9.92372 15.0229 9.476 14.4706 9.476V11.476ZM6.90007 12.638C6.34778 12.638 5.90007 13.0857 5.90007 13.638C5.90007 14.1903 6.34778 14.638 6.90007 14.638V12.638ZM13.3891 14.638C13.9414 14.638 14.3891 14.1903 14.3891 13.638C14.3891 13.0857 13.9414 12.638 13.3891 12.638V14.638ZM5.11363 4.2817C4.56891 4.37279 4.20117 4.88822 4.29226 5.43294C4.38336 5.97766 4.89879 6.3454 5.44351 6.2543L5.11363 4.2817ZM6.02857 5.2065L6.02651 6.2065H6.02857V5.2065ZM14.2786 5.2065L14.2861 4.2065H14.2786V5.2065ZM18.8026 9.798L17.8026 9.79073V9.798H18.8026ZM18.8026 15.372L17.8026 15.372L17.8026 15.3731L18.8026 15.372ZM17.7459 16.0208C17.6495 16.5646 18.0121 17.0837 18.5559 17.1801C19.0997 17.2766 19.6187 16.914 19.7152 16.3702L17.7459 16.0208ZM5.45238 6.25278C5.99626 6.15678 6.35934 5.63807 6.26335 5.09419C6.16735 4.55031 5.64863 4.18723 5.10475 4.28322L5.45238 6.25278ZM1.50007 9.7965L2.50008 9.7965L2.50005 9.79112L1.50007 9.7965ZM1.50007 22.5H0.500067C0.500067 22.855 0.688294 23.1834 0.994623 23.3629C1.30095 23.5423 1.67945 23.5459 1.98912 23.3723L1.50007 22.5ZM6.02407 19.9635V18.9635C5.8528 18.9635 5.6844 19.0075 5.53501 19.0912L6.02407 19.9635ZM14.2741 19.9635L14.2741 20.9635L14.2806 20.9635L14.2741 19.9635ZM19.7067 16.3719C19.8016 15.8279 19.4376 15.3098 18.8935 15.2149C18.3494 15.1199 17.8314 15.484 17.7365 16.0281L19.7067 16.3719ZM4.29329 5.09706C4.19888 5.64122 4.56347 6.15887 5.10763 6.25328C5.65178 6.34769 6.16944 5.9831 6.26385 5.43894L4.29329 5.09706ZM9.73057 1.5L9.73057 0.499984L9.72482 0.500016L9.73057 1.5ZM17.9806 1.5L17.9891 0.5H17.9806V1.5ZM22.5001 6.0915L21.5001 6.08422V6.0915H22.5001ZM22.5001 11.6655H21.5L21.5001 11.6722L22.5001 11.6655ZM18.5478 15.2152C18.0039 15.3112 17.6408 15.8299 17.7368 16.3738C17.8328 16.9177 18.3515 17.2808 18.8954 17.1848L18.5478 15.2152ZM5.82307 11.476H14.4706V9.476H5.82307V11.476ZM6.90007 14.638H13.3891V12.638H6.90007V14.638ZM5.44351 6.2543C5.63616 6.22209 5.83118 6.20609 6.02651 6.2065L6.03063 4.2065C5.7234 4.20587 5.41665 4.23102 5.11363 4.2817L5.44351 6.2543ZM6.02857 6.2065H14.2786V4.2065H6.02857V6.2065ZM14.271 6.20647C16.2359 6.22129 17.8169 7.82586 17.8026 9.79073L19.8025 9.80527C19.8248 6.73607 17.3553 4.22968 14.2861 4.20653L14.271 6.20647ZM17.8026 9.798V15.372H19.8026V9.798H17.8026ZM17.8026 15.3731C17.8028 15.5903 17.7839 15.807 17.7459 16.0208L19.7152 16.3702C19.7737 16.0403 19.8029 15.7059 19.8026 15.3709L17.8026 15.3731ZM5.10475 4.28322C2.43033 4.75526 0.485465 7.08616 0.500082 9.80188L2.50005 9.79112C2.49068 8.04991 3.73765 6.55543 5.45238 6.25278L5.10475 4.28322ZM0.500067 9.7965V22.5H2.50007V9.7965H0.500067ZM1.98912 23.3723L6.51312 20.8358L5.53501 19.0912L1.01101 21.6277L1.98912 23.3723ZM6.02407 20.9635H14.2741V18.9635H6.02407V20.9635ZM14.2806 20.9635C16.9615 20.9459 19.2458 19.0129 19.7067 16.3719L17.7365 16.0281C17.4418 17.7165 15.9814 18.9523 14.2675 18.9635L14.2806 20.9635ZM6.26385 5.43894C6.55724 3.74784 8.01998 2.50984 9.73631 2.49998L9.72482 0.500016C7.04018 0.515436 4.75221 2.45189 4.29329 5.09706L6.26385 5.43894ZM9.73057 2.5H17.9806V0.5H9.73057V2.5ZM17.972 2.49996C19.9355 2.51671 21.5144 4.12071 21.5001 6.08422L23.5 6.09878C23.5224 3.0317 21.0561 0.526196 17.9891 0.500036L17.972 2.49996ZM21.5001 6.0915V11.6655H23.5001V6.0915H21.5001ZM21.5001 11.6722C21.5118 13.4152 20.2642 14.9123 18.5478 15.2152L18.8954 17.1848C21.5725 16.7123 23.5182 14.3773 23.5 11.6588L21.5001 11.6722Z"></path></symbol><symbol id="minus-product" width="16" height="2" viewBox="0 0 16 2" xmlns="http://www.w3.org/2000/svg"><path d="M15 0H1C0.734784 0 0.48043 0.105357 0.292893 0.292893C0.105357 0.48043 0 0.734784 0 1C0 1.26522 0.105357 1.51957 0.292893 1.70711C0.48043 1.89464 0.734784 2 1 2H15C15.2652 2 15.5196 1.89464 15.7071 1.70711C15.8946 1.51957 16 1.26522 16 1C16 0.734784 15.8946 0.48043 15.7071 0.292893C15.5196 0.105357 15.2652 0 15 0Z"></path></symbol><symbol id="plus-product" width="16" height="16" viewBox="0 0 16 16" xmlns="http://www.w3.org/2000/svg"><path d="M15 7H9V1C9 0.734784 8.89464 0.48043 8.70711 0.292893C8.51957 0.105357 8.26522 0 8 0C7.73478 0 7.48043 0.105357 7.29289 0.292893C7.10536 0.48043 7 0.734784 7 1V7H1C0.734784 7 0.48043 7.10536 0.292893 7.29289C0.105357 7.48043 0 7.73478 0 8C0 8.26522 0.105357 8.51957 0.292893 8.70711C0.48043 8.89464 0.734784 9 1 9H7V15C7 15.2652 7.10536 15.5196 7.29289 15.7071C7.48043 15.8946 7.73478 16 8 16C8.26522 16 8.51957 15.8946 8.70711 15.7071C8.89464 15.5196 9 15.2652 9 15V9H15C15.2652 9 15.5196 8.89464 15.7071 8.70711C15.8946 8.51957 16 8.26522 16 8C16 7.73478 15.8946 7.48043 15.7071 7.29289C15.5196 7.10536 15.2652 7 15 7Z"></path></symbol><symbol id="plus" width="24" height="24" viewBox="0 0 24 24" xmlns="http://www.w3.org/2000/svg"><path fill-rule="evenodd" clip-rule="evenodd" d="M10.0005 22C10.0005 23.1046 10.8959 24 12.0005 24C13.1051 24 14.0005 23.1046 14.0005 22L14.0005 13.9994L22 13.9994C23.1046 13.9994 24 13.104 24 11.9994C24 10.8949 23.1046 9.99945 22 9.99945L14.0005 9.99945V2C14.0005 0.895432 13.1051 0 12.0005 0C10.8959 0 10.0005 0.89543 10.0005 2V9.99945H2C0.895431 9.99945 0 10.8949 0 11.9994C0 13.104 0.89543 13.9994 2 13.9994H10.0005L10.0005 22Z"></path></symbol><symbol id="search-icon" width="21" height="21" viewBox="0 0 21 21" xmlns="http://www.w3.org/2000/svg"><path d="M20.7099 19.29L16.9999 15.61C18.44 13.8144 19.1374 11.5353 18.9487 9.24133C18.76 6.94733 17.6996 4.81281 15.9854 3.27667C14.2713 1.74053 12.0337 0.919537 9.73283 0.982497C7.43194 1.04546 5.24263 1.98759 3.61505 3.61517C1.98747 5.24275 1.04534 7.43207 0.982375 9.73295C0.919414 12.0338 1.74041 14.2714 3.27655 15.9855C4.81269 17.6997 6.94721 18.7601 9.2412 18.9488C11.5352 19.1375 13.8143 18.4401 15.6099 17L19.2899 20.68C19.3829 20.7738 19.4935 20.8481 19.6153 20.8989C19.7372 20.9497 19.8679 20.9758 19.9999 20.9758C20.1319 20.9758 20.2626 20.9497 20.3845 20.8989C20.5063 20.8481 20.6169 20.7738 20.7099 20.68C20.8901 20.4936 20.9909 20.2444 20.9909 19.985C20.9909 19.7257 20.8901 19.4765 20.7099 19.29V19.29ZM9.9999 17C8.61544 17 7.26206 16.5895 6.11091 15.8203C4.95977 15.0511 4.06256 13.9579 3.53275 12.6788C3.00293 11.3997 2.86431 9.99226 3.13441 8.63439C3.4045 7.27653 4.07119 6.02925 5.05016 5.05028C6.02912 4.07131 7.27641 3.40463 8.63427 3.13453C9.99214 2.86443 11.3996 3.00306 12.6787 3.53287C13.9578 4.06268 15.051 4.95989 15.8202 6.11103C16.5894 7.26218 16.9999 8.61556 16.9999 10C16.9999 11.8565 16.2624 13.637 14.9497 14.9498C13.6369 16.2625 11.8564 17 9.9999 17V17Z"></path></symbol></svg>