<svg width="22" height="22" viewBox="0 0 22 22" fill="none" xmlns="http://www.w3.org/2000/svg">
<path d="M1.1343 7.71475C0.990461 7.71471 0.848023 7.74302 0.715125 7.79804C0.582227 7.85307 0.461474 7.93374 0.359764 8.03545C0.258054 8.13716 0.177381 8.25792 0.122353 8.39081C0.0673264 8.52371 0.0390237 8.66615 0.0390625 8.80999V13.1909C0.0390625 13.4814 0.154453 13.76 0.35985 13.9654C0.565247 14.1708 0.843825 14.2862 1.1343 14.2862C1.42478 14.2862 1.70335 14.1708 1.90875 13.9654C2.11415 13.76 2.22954 13.4814 2.22954 13.1909V8.80999C2.22958 8.66615 2.20128 8.52371 2.14625 8.39081C2.09122 8.25792 2.01055 8.13716 1.90884 8.03545C1.80713 7.93374 1.68637 7.85307 1.55348 7.79804C1.42058 7.74302 1.27814 7.71471 1.1343 7.71475V7.71475ZM20.8486 7.71475C20.7047 7.71471 20.5623 7.74302 20.4294 7.79804C20.2965 7.85307 20.1758 7.93374 20.0741 8.03545C19.9723 8.13716 19.8917 8.25792 19.8366 8.39081C19.7816 8.52371 19.7533 8.66615 19.7534 8.80999V13.1909C19.7534 13.4814 19.8687 13.76 20.0741 13.9654C20.2795 14.1708 20.5581 14.2862 20.8486 14.2862C21.1391 14.2862 21.4176 14.1708 21.623 13.9654C21.8284 13.76 21.9438 13.4814 21.9438 13.1909V8.80999C21.9439 8.66615 21.9156 8.52371 21.8605 8.39081C21.8055 8.25792 21.7248 8.13716 21.6231 8.03545C21.5214 7.93374 21.4007 7.85307 21.2678 7.79804C21.1349 7.74302 20.9924 7.71471 20.8486 7.71475ZM16.3206 1.69094C16.393 1.5664 16.4401 1.4288 16.4593 1.28601C16.4784 1.14322 16.4692 0.998055 16.4321 0.858835C16.3951 0.719616 16.3309 0.589078 16.2433 0.474703C16.1557 0.360328 16.0464 0.264364 15.9217 0.192312C15.7969 0.120259 15.6592 0.0735343 15.5163 0.0548148C15.3735 0.0360953 15.2283 0.0457495 15.0892 0.0832237C14.9501 0.120698 14.8198 0.185255 14.7057 0.273197C14.5915 0.361138 14.4959 0.470734 14.4242 0.595704L13.7516 1.75926C12.888 1.35362 11.9456 1.14332 10.9914 1.14332C10.0373 1.14332 9.0949 1.35362 8.23129 1.75926L7.55866 0.595704C7.48698 0.470734 7.39135 0.361138 7.27723 0.273197C7.16312 0.185255 7.03278 0.120698 6.89367 0.0832237C6.75456 0.0457495 6.60942 0.0360953 6.46658 0.0548148C6.32373 0.0735343 6.18599 0.120259 6.06123 0.192312C5.93648 0.264364 5.82717 0.360328 5.73957 0.474703C5.65197 0.589078 5.5878 0.719616 5.55074 0.858835C5.51369 0.998055 5.50447 1.14322 5.52361 1.28601C5.54276 1.4288 5.5899 1.5664 5.66232 1.69094L6.42077 3.00297C5.78796 3.61374 5.28466 4.34573 4.94091 5.15526C4.59716 5.96479 4.42 6.83526 4.42002 7.71475V16.4767C4.41998 16.6205 4.44828 16.7629 4.50331 16.8958C4.55834 17.0287 4.63901 17.1495 4.74072 17.2512C4.84243 17.3529 4.96318 17.4336 5.09608 17.4886C5.22898 17.5436 5.37141 17.5719 5.51525 17.5719H7.70573V20.8576C7.70573 21.1481 7.82112 21.4267 8.02652 21.6321C8.23192 21.8375 8.51049 21.9528 8.80097 21.9528C9.09144 21.9528 9.37002 21.8375 9.57542 21.6321C9.78082 21.4267 9.89621 21.1481 9.89621 20.8576V17.5719H12.0867V20.8576C12.0867 21.1481 12.2021 21.4267 12.4075 21.6321C12.6129 21.8375 12.8914 21.9528 13.1819 21.9528C13.4724 21.9528 13.751 21.8375 13.9564 21.6321C14.1618 21.4267 14.2772 21.1481 14.2772 20.8576V17.5719H16.4676C16.6115 17.5719 16.7539 17.5436 16.8868 17.4886C17.0197 17.4336 17.1405 17.3529 17.2422 17.2512C17.3439 17.1495 17.4246 17.0287 17.4796 16.8958C17.5346 16.7629 17.5629 16.6205 17.5629 16.4767V7.71475C17.5629 6.83526 17.3857 5.96479 17.042 5.15526C16.6982 4.34573 16.1949 3.61374 15.5621 3.00297L16.3206 1.69094ZM15.3724 15.3814H6.61049V9.90523H15.3724V15.3814ZM6.61049 7.71475C6.61049 6.55285 7.07205 5.43854 7.89364 4.61695C8.71523 3.79536 9.82954 3.3338 10.9914 3.3338C12.1533 3.3338 13.2677 3.79536 14.0892 4.61695C14.9108 5.43854 15.3724 6.55285 15.3724 7.71475H6.61049Z" fill="black"/>
</svg>
