<svg width="22" height="26" viewBox="0 0 22 26" fill="none" xmlns="http://www.w3.org/2000/svg">
<path d="M20.3143 17.1001C19.6442 16.8135 19.0734 16.3358 18.6732 15.7267C18.273 15.1177 18.0611 14.4041 18.064 13.6753C18.0726 13.0248 18.2469 12.3871 18.5702 11.8226C18.8936 11.258 19.3554 10.7851 19.9122 10.4484C20.0381 10.3706 20.147 10.268 20.2322 10.1469C20.3174 10.0258 20.3772 9.88865 20.4078 9.74379C20.4385 9.59893 20.4395 9.44935 20.4108 9.30409C20.382 9.15883 20.3241 9.02091 20.2405 8.89867C19.74 8.17085 19.0876 7.56031 18.3282 7.10919C17.5687 6.65807 16.7205 6.37712 15.8419 6.28573C16.6596 4.98802 17.0307 3.45858 16.8987 1.93043C16.8729 1.65294 16.7406 1.39623 16.5296 1.21416C16.3186 1.03209 16.0453 0.938818 15.7671 0.953916C13.8865 1.12153 12.1432 2.00851 10.9005 3.42996C10.1128 4.34272 9.55694 5.43205 9.28012 6.60551C8.70821 6.41196 8.10944 6.30946 7.50571 6.30176C6.388 6.33343 5.29744 6.65337 4.33977 7.23054C3.38209 7.80771 2.58979 8.62253 2.03968 9.596C-0.0278009 13.1855 1.23697 18.5643 3.47663 21.8019C4.37507 23.0993 5.72326 25.047 7.75704 25.047C7.79715 25.047 7.83779 25.047 7.87844 25.0448C8.55987 25.0061 9.22699 24.8335 9.84163 24.5367C10.3326 24.2879 10.8742 24.1554 11.4246 24.1496C11.9422 24.1559 12.4512 24.2826 12.9113 24.5196C13.5836 24.8377 14.3163 25.0081 15.0601 25.0191C17.1553 24.9796 18.3929 23.172 19.2966 21.8511C20.0097 20.8018 20.5677 19.6552 20.9534 18.4466C21.0356 18.1829 21.0155 17.898 20.897 17.6485C20.7786 17.3989 20.5706 17.2032 20.3143 17.1001V17.1001ZM12.5589 4.85999C13.1341 4.21654 13.8549 3.72 14.6611 3.4118C14.4847 4.27949 14.0945 5.08941 13.5258 5.76806C13.1397 6.23121 12.6701 6.61763 12.1412 6.90719L12.138 6.90829C12.107 6.92112 12.076 6.93289 12.0449 6.94572C11.8406 7.02594 11.5882 7.12541 11.3936 7.18958C11.5815 6.32798 11.9822 5.52713 12.5589 4.85999V4.85999ZM17.4891 20.6147C16.6088 21.9004 15.9163 22.8127 15.02 22.8287C14.5867 22.8274 14.1607 22.7174 13.7809 22.5089C13.0466 22.1512 12.2413 21.9633 11.4246 21.9591C10.5795 21.9634 9.74587 22.1552 8.98385 22.5206C8.61337 22.7098 8.20918 22.8239 7.79449 22.8565H7.76187C6.87144 22.8565 5.91366 21.4735 5.2778 20.5548C3.68681 18.2552 2.21936 13.6732 3.93817 10.6891C4.29859 10.0433 4.81982 9.50173 5.45127 9.11681C6.08272 8.7319 6.80295 8.51675 7.54207 8.49225L7.57897 8.49116C8.20246 8.54415 8.81132 8.709 9.37638 8.97782C9.52024 9.03449 9.66196 9.09118 9.80261 9.14359C9.83843 9.15857 9.87533 9.17247 9.91277 9.18424C10.3025 9.341 10.7165 9.42894 11.1364 9.44415C11.7308 9.39691 12.3115 9.24064 12.8493 8.98316C13.6075 8.61519 14.4409 8.4288 15.2836 8.43875C16.185 8.47402 17.0504 8.8022 17.7485 9.37356C17.1519 9.92322 16.6769 10.5916 16.354 11.3358C16.0311 12.0799 15.8674 12.8834 15.8735 13.6946V13.6957C15.8673 14.6777 16.1103 15.6453 16.5799 16.5078C17.0494 17.3703 17.73 18.0996 18.5581 18.6275C18.2698 19.3243 17.9116 19.9901 17.4891 20.6147V20.6147Z" fill="black"/>
</svg>
