<svg width="22" height="23" viewBox="0 0 22 23" fill="none" xmlns="http://www.w3.org/2000/svg">
<path d="M16.8488 4.02762C16.5889 4.02762 16.3348 4.1047 16.1186 4.24912C15.9025 4.39354 15.734 4.5988 15.6346 4.83895C15.5351 5.07911 15.5091 5.34337 15.5598 5.59831C15.6105 5.85326 15.7357 6.08744 15.9195 6.27125C16.1033 6.45505 16.3375 6.58023 16.5924 6.63094C16.8473 6.68165 17.1116 6.65563 17.3518 6.55615C17.5919 6.45667 17.7972 6.28822 17.9416 6.07209C18.086 5.85595 18.1631 5.60185 18.1631 5.34191C18.1631 4.99334 18.0246 4.65904 17.7781 4.41257C17.5317 4.16609 17.1974 4.02762 16.8488 4.02762V4.02762ZM21.8869 6.6781C21.8656 5.76938 21.6954 4.8703 21.3831 4.01667C21.1046 3.28629 20.6712 2.62493 20.1126 2.0781C19.5703 1.51671 18.9074 1.08601 18.174 0.818574C17.3227 0.49675 16.4226 0.322661 15.5126 0.303812C14.3517 0.238098 13.9793 0.238098 11.0002 0.238098C8.02119 0.238098 7.6488 0.238098 6.48785 0.303812C5.57788 0.322661 4.6778 0.49675 3.82642 0.818574C3.09445 1.08871 2.43211 1.51905 1.88785 2.0781C1.32646 2.62044 0.895759 3.28334 0.628328 4.01667C0.306504 4.86805 0.132415 5.76812 0.113566 6.6781C0.0478515 7.83905 0.0478516 8.21143 0.0478516 11.1905C0.0478516 14.1695 0.0478515 14.5419 0.113566 15.7029C0.132415 16.6128 0.306504 17.5129 0.628328 18.3643C0.895759 19.0976 1.32646 19.7605 1.88785 20.3029C2.43211 20.8619 3.09445 21.2922 3.82642 21.5624C4.6778 21.8842 5.57788 22.0583 6.48785 22.0771C7.6488 22.1429 8.02119 22.1429 11.0002 22.1429C13.9793 22.1429 14.3517 22.1429 15.5126 22.0771C16.4226 22.0583 17.3227 21.8842 18.174 21.5624C18.9074 21.295 19.5703 20.8643 20.1126 20.3029C20.6736 19.7581 21.1075 19.0961 21.3831 18.3643C21.6954 17.5107 21.8656 16.6116 21.8869 15.7029C21.8869 14.5419 21.9526 14.1695 21.9526 11.1905C21.9526 8.21143 21.9526 7.83905 21.8869 6.6781V6.6781ZM19.9155 15.5714C19.9075 16.2667 19.7816 16.9555 19.5431 17.6086C19.3682 18.0852 19.0873 18.5159 18.7217 18.8681C18.3664 19.2301 17.9366 19.5104 17.4621 19.6895C16.8091 19.928 16.1202 20.0539 15.425 20.0619C14.3298 20.1167 13.9245 20.1276 11.044 20.1276C8.16357 20.1276 7.75833 20.1276 6.66309 20.0619C5.94121 20.0754 5.22241 19.9643 4.53833 19.7333C4.08466 19.545 3.67458 19.2654 3.33357 18.9119C2.97004 18.5601 2.69268 18.129 2.52309 17.6524C2.25569 16.9899 2.10739 16.2855 2.08499 15.5714C2.08499 14.4762 2.01928 14.071 2.01928 11.1905C2.01928 8.31 2.01928 7.90477 2.08499 6.80953C2.0899 6.09878 2.21965 5.39442 2.46833 4.72857C2.66114 4.26629 2.95709 3.8542 3.33357 3.52381C3.66631 3.14724 4.07755 2.84816 4.53833 2.64762C5.20593 2.40672 5.90956 2.2808 6.61928 2.27524C7.71452 2.27524 8.11976 2.20953 11.0002 2.20953C13.8807 2.20953 14.2859 2.20953 15.3812 2.27524C16.0764 2.28322 16.7652 2.40913 17.4183 2.64762C17.916 2.83234 18.3627 3.13264 18.7217 3.52381C19.0806 3.86025 19.361 4.27157 19.5431 4.72857C19.7865 5.3955 19.9125 6.09957 19.9155 6.80953C19.9702 7.90477 19.9812 8.31 19.9812 11.1905C19.9812 14.071 19.9702 14.4762 19.9155 15.5714ZM11.0002 5.57191C9.88945 5.57407 8.80424 5.90544 7.88171 6.52413C6.95918 7.14282 6.24074 8.02108 5.81717 9.04792C5.39359 10.0748 5.28388 11.2041 5.50191 12.2933C5.71994 13.3825 6.25592 14.3826 7.04213 15.1673C7.82833 15.9519 8.82948 16.486 9.91908 16.7019C11.0087 16.9178 12.1378 16.8059 13.1638 16.3803C14.1899 15.9547 15.0667 15.2346 15.6836 14.3109C16.3005 13.3871 16.6298 12.3013 16.6298 11.1905C16.6312 10.4513 16.4865 9.71914 16.204 9.0361C15.9214 8.35305 15.5067 7.7326 14.9835 7.21044C14.4603 6.68828 13.839 6.2747 13.1554 5.9935C12.4718 5.7123 11.7394 5.56902 11.0002 5.57191V5.57191ZM11.0002 14.8376C10.2789 14.8376 9.57376 14.6237 8.97399 14.223C8.37422 13.8222 7.90676 13.2526 7.63071 12.5862C7.35467 11.9198 7.28244 11.1864 7.42317 10.479C7.56389 9.77148 7.91125 9.12162 8.42131 8.61156C8.93138 8.1015 9.58124 7.75414 10.2887 7.61342C10.9962 7.47269 11.7295 7.54492 12.3959 7.82096C13.0624 8.097 13.632 8.56447 14.0327 9.16424C14.4335 9.76401 14.6474 10.4691 14.6474 11.1905C14.6474 11.6694 14.553 12.1437 14.3698 12.5862C14.1865 13.0287 13.9178 13.4307 13.5792 13.7694C13.2405 14.1081 12.8384 14.3767 12.3959 14.56C11.9534 14.7433 11.4792 14.8376 11.0002 14.8376V14.8376Z" fill="black"/>
</svg>
