<svg width="252" height="43" viewBox="0 0 252 43" fill="none" xmlns="http://www.w3.org/2000/svg">
<path d="M27.5832 28.9236C30.0105 27.7139 31.9413 26.1193 33.2653 23.9748C34.5893 21.8853 35.2513 19.4108 35.2513 16.6065C35.2513 13.6922 34.5342 11.1078 33.155 8.9633C31.7207 6.76382 29.7347 5.1142 27.1419 3.95948C24.549 2.80475 21.4597 2.19989 17.9291 2.19989H0.0551698V10.8878H11.0884V10.8329H17.2119C19.4737 10.8329 21.1839 11.3277 22.3424 12.3175C23.5009 13.3073 24.0525 14.7369 24.0525 16.5515C24.0525 18.3661 23.5009 19.7958 22.3424 20.7305C21.1839 21.7203 19.4737 22.2152 17.2119 22.2152H11.254H0V41.0208H11.0333V30.6832H17.0464L24.1077 41.0208H35.9685L27.5832 28.9236Z" fill="black"/>
<path d="M57.373 2.19971V41.1306H68.4063V2.19971H57.373Z" fill="black"/>
<path d="M116.235 2.19971V22.9298L99.0234 2.19971H89.9209V41.1306H100.734V20.4004L117.945 41.1306H127.048V2.19971H116.235Z" fill="black"/>
<path d="M235.23 19.4656L251.173 2.19971H239.036L223.921 18.3659V2.19971H212.942V41.1306H223.865V31.3978L228.003 26.9989L239.146 41.1306H252L235.23 19.4656Z" fill="black"/>
<path d="M191.703 20.785L182.766 20.73H157.776H148.618H148.453V21.5548C148.453 21.9947 148.397 22.3796 148.397 22.8195C148.397 26.6686 149.335 30.1328 151.211 33.212C153.087 36.2913 155.679 38.7108 158.989 40.4154C161.582 41.79 164.396 42.6148 167.54 42.8898H167.595C168.423 42.9448 169.25 42.9997 170.133 42.9997C171.567 42.9997 172.947 42.8898 174.326 42.6698C176.808 42.2849 179.125 41.5151 181.277 40.3604C184.587 38.6008 187.179 36.2363 189.055 33.1571C190.765 30.3527 191.703 27.2185 191.869 23.8093C191.869 23.4793 191.869 23.1494 191.869 22.7645C191.813 22.1047 191.813 21.4448 191.703 20.785Z" fill="white"/>
<path d="M191.813 23.8644C191.813 23.5345 191.813 23.2045 191.813 22.8196C191.813 22.1598 191.813 21.445 191.703 20.7851H182.711C182.325 14.2417 176.863 9.07287 170.188 9.07287C163.568 9.07287 158.107 14.2417 157.665 20.7851H148.508C148.949 9.23783 158.493 0 170.133 0C182.049 0 191.758 9.67772 191.758 21.5549C191.924 22.3248 191.869 23.0946 191.813 23.8644Z" fill="white"/>
</svg>
