<svg width="16" height="25" viewBox="0 0 16 25" fill="none" xmlns="http://www.w3.org/2000/svg">
<path d="M15.1513 21.4133L14.0978 18.288C14.0482 18.1412 13.9681 18.0066 13.8626 17.8931C13.7572 17.7795 13.6289 17.6896 13.4862 17.6293C13.3435 17.5689 13.1896 17.5395 13.0347 17.543C12.8798 17.5465 12.7274 17.5828 12.5876 17.6495C12.1642 17.8127 11.7168 17.9048 11.2634 17.9222C11.0086 17.9545 10.751 17.89 10.5415 17.7415C10.3501 17.488 10.257 17.1738 10.2794 16.857V12.0952H13.5834C13.7272 12.0953 13.8697 12.067 14.0026 12.012C14.1355 11.957 14.2563 11.8763 14.358 11.7746C14.4597 11.6729 14.5404 11.5521 14.5954 11.4192C14.6504 11.2863 14.6787 11.1438 14.6786 11V6.72279C14.6787 6.57894 14.6504 6.43648 14.5954 6.30356C14.5404 6.17064 14.4597 6.04987 14.358 5.94815C14.2563 5.84643 14.1355 5.76576 14.0026 5.71075C13.8697 5.65574 13.7272 5.62747 13.5834 5.62755H10.2955V1.14285C10.2956 0.998993 10.2673 0.856536 10.2123 0.723617C10.1573 0.590699 10.0766 0.469928 9.97488 0.368209C9.87316 0.26649 9.75239 0.185819 9.61947 0.130808C9.48655 0.0757963 9.3441 0.0475241 9.20024 0.0476076H5.99153C5.67954 0.049041 5.37922 0.166417 5.14893 0.376926C4.91865 0.587435 4.77486 0.87604 4.74549 1.18666C4.70177 2.27922 4.33792 3.33485 3.69918 4.22233C3.06043 5.10981 2.17495 5.79 1.15281 6.17837C0.940754 6.25461 0.757408 6.39446 0.62781 6.57881C0.498212 6.76316 0.42868 6.98302 0.428711 7.20836V11.1337C0.428629 11.2775 0.456902 11.42 0.511914 11.5529C0.566926 11.6858 0.647597 11.8066 0.749316 11.9083C0.851034 12.01 0.971805 12.0907 1.10472 12.1457C1.23764 12.2007 1.3801 12.229 1.52395 12.2289H2.64592V17.196C2.66434 19.0388 3.40652 20.8006 4.71233 22.101C5.44078 22.7841 6.29729 23.3161 7.23244 23.6664C8.16758 24.0166 9.16284 24.1782 10.1608 24.1418C10.2196 24.1418 10.2795 24.1418 10.3394 24.1407C12.0325 24.1129 14.3021 23.4315 15.0187 22.3802C15.1142 22.2403 15.1759 22.0801 15.1989 21.9123C15.2219 21.7446 15.2056 21.5737 15.1513 21.4133ZM10.303 21.9502C9.56625 22.0088 8.8254 21.9137 8.1274 21.6708C7.4294 21.428 6.78948 21.0427 6.24824 20.5395C5.3569 19.6536 4.84979 18.4526 4.8364 17.196V11.1337C4.83648 10.9898 4.80821 10.8474 4.7532 10.7145C4.69819 10.5815 4.61752 10.4608 4.5158 10.359C4.41408 10.2573 4.29331 10.1767 4.16039 10.1216C4.02747 10.0666 3.88501 10.0384 3.74116 10.0384H2.61919V7.93888C3.72516 7.39747 4.68338 6.59599 5.41174 5.60312C6.14009 4.61025 6.61687 3.45559 6.8012 2.23808H8.105V6.72279C8.10492 6.86664 8.1332 7.0091 8.18821 7.14201C8.24322 7.27493 8.32389 7.3957 8.42561 7.49742C8.52733 7.59914 8.6481 7.67981 8.78102 7.73482C8.91393 7.78984 9.05639 7.81811 9.20024 7.81803H12.4881V9.90475H9.18425C9.0404 9.90467 8.89794 9.93294 8.76502 9.98795C8.63211 10.043 8.51133 10.1236 8.40962 10.2254C8.3079 10.3271 8.22723 10.4478 8.17221 10.5808C8.1172 10.7137 8.08893 10.8561 8.08901 11V16.8751C8.07386 17.3252 8.14905 17.7737 8.31017 18.1942C8.47128 18.6147 8.71503 18.9987 9.02703 19.3234C9.33457 19.606 9.69722 19.822 10.0922 19.9579C10.4872 20.0937 10.906 20.1464 11.3223 20.1127C11.6709 20.0994 12.0179 20.0579 12.3598 19.9886L12.8251 21.3673C12.0322 21.7295 11.1743 21.9278 10.303 21.9502Z" fill="black"/>
</svg>
